<?xml version="1.0" standalone="no"?>
<!DOCTYPE svg PUBLIC "-//W3C//DTD SVG 20010904//EN"
 "http://www.w3.org/TR/2001/REC-SVG-20010904/DTD/svg10.dtd">
<svg version="1.0" xmlns="http://www.w3.org/2000/svg"
 width="960.000000pt" height="960.000000pt" viewBox="0 0 960.000000 960.000000"
 preserveAspectRatio="xMidYMid meet">

<g transform="translate(0.000000,960.000000) scale(0.100000,-0.100000)"
fill="#000000" stroke="none">
<path d="M5860 7599 c-7 -11 -10 -23 -7 -25 6 -6 37 25 37 37 0 17 -19 9 -30
-12z"/>
<path d="M5908 7584 c-3 -5 -8 -21 -12 -36 -3 -16 -11 -28 -16 -28 -6 0 -10
-7 -10 -15 0 -8 -13 -21 -30 -30 -16 -9 -30 -13 -30 -9 0 3 -11 -1 -25 -10
-14 -9 -25 -13 -25 -8 0 15 24 32 45 32 19 0 75 47 75 63 0 10 -38 9 -42 -2
-6 -15 -87 -61 -110 -61 -12 0 -29 -6 -37 -14 -18 -16 -194 -82 -231 -88 -14
-1 -31 -11 -38 -20 -17 -23 -72 -24 -72 -3 0 9 7 18 15 21 9 4 14 16 13 28 -2
11 -1 21 2 22 19 3 49 27 44 35 -3 5 0 16 6 24 7 8 8 15 3 15 -15 0 -33 -23
-33 -43 0 -10 -4 -16 -9 -13 -5 3 -20 -3 -34 -14 -14 -11 -35 -20 -47 -20 -13
0 -39 -10 -59 -22 -34 -20 -35 -21 -18 -2 20 24 23 58 5 52 -7 -3 -17 -14 -23
-26 -6 -13 -19 -22 -32 -22 -12 0 -23 -5 -25 -10 -2 -6 -14 -12 -26 -15 -21
-4 -23 -1 -22 28 3 52 1 54 -28 20 -28 -33 -102 -58 -102 -33 0 12 -24 40 -34
40 -3 0 -6 -8 -6 -18 0 -33 -19 -42 -51 -23 -22 12 -29 22 -26 39 7 36 -38 30
-55 -8 -7 -16 -19 -30 -25 -30 -7 0 -13 -4 -13 -10 0 -5 -8 -10 -17 -10 -17 1
-17 1 0 11 9 5 17 17 17 25 0 8 -8 18 -17 21 -10 4 -21 11 -25 17 -4 6 -8 -3
-8 -19 0 -27 -3 -30 -32 -30 -25 0 -33 -4 -32 -17 1 -10 -2 -18 -7 -18 -5 0
-9 -9 -9 -21 0 -11 4 -18 9 -15 5 3 24 3 42 -1 30 -6 31 -7 11 -14 -12 -5 -22
-15 -22 -24 0 -8 -5 -15 -11 -15 -6 0 -9 6 -6 14 3 8 -5 18 -19 25 -13 6 -24
17 -24 24 0 8 -9 22 -20 32 -11 10 -20 25 -20 33 0 8 -6 12 -14 9 -10 -4 -12
0 -8 15 4 18 2 19 -19 12 -13 -5 -41 -8 -61 -7 -20 2 -40 -2 -43 -8 -4 -6 3
-7 19 -3 16 4 26 2 26 -5 0 -6 -14 -11 -31 -11 -24 0 -30 -4 -25 -15 3 -9 0
-15 -9 -15 -8 0 -15 -5 -15 -12 0 -9 -3 -9 -12 0 -16 16 -29 15 -22 -2 7 -19
-12 -29 -32 -18 -11 6 -13 11 -5 16 8 5 6 12 -5 24 -15 15 -18 14 -41 -13 -22
-28 -25 -29 -37 -12 -8 10 -18 17 -22 16 -5 -1 -11 0 -14 1 -18 9 -60 4 -60
-7 0 -8 -11 -12 -27 -11 -52 3 -78 -3 -102 -23 -19 -15 -22 -22 -12 -28 9 -6
5 -8 -12 -8 -14 0 -28 6 -31 13 -3 8 -12 11 -21 8 -8 -3 -13 -10 -10 -14 3 -4
-2 -11 -11 -14 -9 -4 -13 -2 -8 5 9 15 -38 1 -51 -15 -5 -7 -31 -16 -56 -19
-25 -3 -81 -22 -124 -42 -43 -19 -82 -35 -87 -35 -16 0 -169 -79 -225 -117
-40 -26 -53 -41 -53 -59 0 -25 -15 -33 -23 -11 -3 9 -8 9 -21 -2 -13 -11 -14
-16 -4 -23 9 -6 3 -8 -17 -4 -16 3 -24 3 -17 0 17 -8 15 -44 -2 -44 -8 0 -21
6 -28 13 -14 14 -38 12 -38 -4 0 -5 7 -9 15 -9 8 0 15 -7 15 -15 0 -18 -14
-19 -41 -2 -17 10 -22 9 -34 -6 -7 -10 -17 -17 -22 -15 -4 2 -12 -6 -17 -17
-5 -12 -26 -29 -47 -39 -22 -11 -39 -23 -39 -27 0 -4 -9 -11 -20 -14 -11 -3
-20 -11 -20 -17 0 -12 -60 -68 -74 -68 -9 0 -216 -208 -216 -217 0 -3 -11 -16
-25 -29 -13 -12 -27 -35 -30 -51 -13 -55 -15 -59 -25 -43 -7 12 -10 11 -16 -4
-4 -11 -27 -39 -51 -64 -46 -49 -52 -66 -27 -76 8 -3 12 -10 9 -16 -9 -15 -25
-12 -25 5 0 8 -4 15 -8 15 -14 0 -42 -35 -42 -51 0 -8 -7 -25 -16 -37 -13 -19
-13 -22 0 -22 8 0 16 10 18 22 2 13 10 24 19 26 13 2 18 -7 21 -38 3 -35 1
-41 -18 -46 -22 -6 -39 -49 -36 -90 2 -12 -4 -24 -12 -27 -9 -4 -12 -14 -9
-28 5 -20 3 -21 -20 -15 -21 5 -27 3 -27 -9 0 -9 -6 -18 -14 -21 -7 -3 -13
-17 -13 -30 0 -14 -5 -30 -11 -36 -16 -16 -33 1 -26 28 5 18 2 24 -10 24 -11
0 -16 -9 -16 -31 0 -21 -8 -37 -24 -50 -14 -11 -26 -34 -30 -58 -3 -22 -10
-41 -16 -43 -5 -1 -12 -18 -14 -36 -2 -19 -9 -39 -15 -45 -14 -14 -15 -40 -1
-32 6 4 10 -6 10 -23 0 -26 -3 -29 -22 -25 -23 5 -23 5 -2 -10 11 -9 28 -15
38 -14 11 1 21 -4 23 -10 3 -7 -3 -13 -11 -13 -13 0 -16 -9 -14 -42 3 -38 1
-43 -19 -43 -29 -1 -29 -2 -37 -57 -6 -40 -5 -48 9 -48 13 0 14 -4 5 -20 -6
-12 -8 -30 -5 -40 5 -17 2 -20 -23 -20 -20 0 -32 7 -42 25 -7 14 -17 25 -22
25 -4 0 -8 -11 -8 -25 0 -14 5 -25 10 -25 6 0 10 6 10 13 0 8 3 8 9 -2 5 -8 6
-21 3 -30 -5 -14 -3 -14 11 -2 18 14 67 8 67 -9 0 -12 -34 -22 -54 -14 -12 4
-16 1 -16 -14 0 -27 8 -31 48 -25 21 4 32 11 32 22 1 12 5 11 20 -8 22 -26 28
-53 8 -33 -19 19 -28 14 -28 -17 0 -24 4 -28 19 -24 22 6 38 -14 23 -29 -8 -8
-16 -7 -27 2 -12 10 -15 10 -15 -4 0 -10 -5 -14 -10 -11 -6 4 -8 11 -5 16 4 5
-2 9 -11 9 -10 0 -14 -3 -11 -7 4 -3 2 -12 -4 -19 -7 -8 -7 -14 1 -19 8 -5 8
-11 -1 -21 -9 -11 -8 -14 7 -15 13 0 10 -4 -10 -11 -22 -8 -31 -7 -38 3 -8 12
-9 11 -5 -1 2 -10 18 -16 44 -18 48 -4 70 -32 25 -32 -37 0 -53 -12 -42 -30 6
-8 10 -27 10 -42 0 -17 5 -28 14 -28 20 0 27 -27 10 -41 -19 -15 1 -43 27 -36
26 7 32 -31 8 -46 -10 -6 -19 -14 -19 -17 0 -11 44 -9 57 2 9 7 18 7 30 -3 9
-8 19 -14 22 -14 3 0 5 -6 5 -12 -1 -7 6 -13 17 -13 22 0 73 -45 65 -58 -3 -5
1 -18 9 -28 14 -19 14 -19 15 1 1 15 3 16 7 5 9 -21 35 -45 50 -45 7 0 13 -4
13 -8 0 -4 0 -11 0 -17 0 -5 -6 -10 -13 -10 -7 0 -13 -9 -13 -19 0 -15 4 -17
13 -10 7 6 16 8 22 5 5 -4 11 4 13 16 2 13 10 23 18 23 9 0 14 -8 12 -20 -2
-16 -1 -17 7 -5 5 8 8 17 5 21 -2 4 2 9 9 12 16 6 77 -3 77 -12 0 -4 10 -7 23
-7 16 1 23 -5 25 -21 2 -15 10 -23 22 -23 30 0 33 19 6 32 -38 17 -34 42 5 34
25 -5 30 -3 27 11 -2 9 -14 20 -27 23 -29 7 -39 28 -17 36 9 3 16 15 16 26 0
10 -4 17 -9 13 -5 -3 -12 -1 -15 4 -12 19 25 20 56 1 18 -10 47 -21 63 -24 25
-4 32 -1 42 21 7 14 10 30 7 34 -3 5 1 9 9 9 8 0 17 -7 21 -15 3 -10 18 -15
43 -14 23 1 29 3 16 6 -15 3 -23 12 -23 25 0 15 -5 19 -19 15 -24 -6 -37 2
-45 31 -8 26 0 28 24 7 27 -24 53 -8 46 28 -8 41 -56 77 -56 42 0 -9 12 -20
26 -25 14 -6 24 -15 22 -22 -7 -20 -26 -20 -33 1 -4 13 -11 18 -22 14 -11 -5
-14 -1 -10 13 3 10 8 28 11 40 7 23 69 54 109 54 20 0 27 5 27 20 0 13 -7 20
-20 20 -26 0 -26 16 0 23 11 3 20 0 20 -5 0 -6 9 -3 20 7 11 10 20 13 20 7 0
-25 19 -11 25 18 4 16 10 30 15 30 12 0 22 -34 14 -53 -7 -20 18 -47 44 -47
11 0 23 7 26 16 8 21 -11 45 -33 42 -10 -2 -17 5 -19 20 -3 21 11 31 22 13 3
-4 17 -6 30 -4 20 4 23 10 20 31 -7 37 -14 44 -35 39 -10 -3 -23 1 -30 9 -18
22 -39 17 -39 -11 0 -25 -14 -33 -25 -15 -4 6 -11 8 -16 5 -5 -4 -3 -13 5 -21
16 -16 10 -47 -8 -41 -12 4 -31 85 -22 94 3 3 12 0 21 -7 16 -13 18 -9 15 28
-1 19 3 23 21 20 16 -2 25 3 27 15 3 13 -1 17 -14 15 -11 -2 -19 3 -19 12 0 9
-8 14 -20 12 -27 -5 -31 -10 -17 -24 18 -18 14 -38 -8 -38 -17 0 -20 7 -20 39
0 25 5 41 15 45 9 3 12 12 9 21 -7 18 21 44 48 45 20 0 25 7 32 43 3 20 1 25
-11 20 -13 -5 -15 -1 -9 23 4 16 8 40 9 53 3 33 25 38 36 9 l10 -23 0 23 c1
12 -3 22 -9 22 -5 0 -10 9 -10 20 0 13 7 20 20 20 16 0 20 7 20 30 l0 29 23
-22 c13 -13 21 -30 18 -41 -3 -15 0 -18 12 -13 10 4 17 1 17 -6 0 -8 2 -9 8
-1 4 6 18 11 31 10 13 0 26 5 28 12 3 6 -2 12 -11 12 -10 0 -13 6 -9 16 6 16
7 15 18 0 7 -9 17 -16 21 -15 30 5 44 -3 44 -25 0 -33 20 -43 38 -20 13 18 14
17 8 -8 -6 -25 -3 -28 18 -28 14 0 28 5 31 10 3 6 17 10 30 10 13 0 27 -4 30
-10 3 -5 -1 -10 -9 -10 -9 0 -16 -8 -16 -19 0 -28 17 -35 25 -11 7 23 16 25
33 8 9 -9 12 -9 12 0 0 7 8 12 18 12 10 1 3 8 -19 20 -22 11 -39 29 -43 44 -5
22 -10 24 -44 21 -27 -3 -30 -2 -11 3 22 6 25 10 18 30 -9 23 -24 29 -34 12
-9 -15 -35 -12 -35 4 0 7 -10 16 -22 20 -19 5 -20 8 -8 15 8 5 18 7 24 4 5 -3
15 2 22 11 8 12 14 14 19 5 4 -6 1 -15 -6 -20 -9 -6 -10 -9 -2 -9 6 0 18 7 27
15 13 13 13 21 3 43 -6 15 -17 31 -24 35 -21 13 -15 25 18 32 27 6 35 3 54
-21 13 -16 21 -33 19 -39 -2 -5 10 -18 27 -28 30 -17 31 -18 13 -32 -15 -10
-16 -16 -7 -25 9 -10 17 -9 34 4 29 20 39 20 39 1 0 -9 -11 -20 -25 -25 -34
-13 -31 -28 8 -38 39 -11 40 -11 29 18 -11 30 -3 70 14 70 8 0 14 -4 14 -8 0
-4 9 -8 20 -8 11 0 20 4 20 8 0 4 16 8 35 8 26 0 33 3 29 15 -4 8 -20 19 -38
24 -33 9 -56 3 -36 -9 12 -8 6 -30 -8 -30 -11 0 -43 61 -36 71 3 5 0 9 -6 9
-6 0 -8 5 -5 11 5 7 14 4 26 -7 19 -17 22 -14 20 21 -1 14 8 24 30 32 18 7 28
16 24 23 -4 7 1 9 17 5 16 -4 29 -1 37 9 12 14 10 15 -15 11 -16 -3 -35 -1
-43 4 -16 10 -6 31 15 31 8 0 14 4 14 10 0 5 -6 7 -14 4 -11 -4 -13 0 -9 18 3
13 11 29 16 36 8 10 7 16 -4 23 -11 7 -9 9 9 9 13 0 22 6 22 15 0 9 6 26 14
38 13 19 13 24 0 35 -8 7 -14 9 -14 3 0 -5 -16 -9 -35 -9 -38 0 -49 22 -16 31
12 3 19 13 18 24 -1 21 -28 51 -37 43 -3 -3 -6 5 -8 17 -2 13 5 29 17 40 12 9
21 23 21 30 0 7 12 16 26 19 17 4 23 11 20 21 -3 8 -6 20 -6 27 0 7 -7 13 -15
13 -8 0 -15 -6 -15 -14 0 -7 -7 -13 -15 -13 -8 0 -15 7 -15 15 0 11 -7 14 -25
9 -15 -4 -40 1 -62 11 -36 17 -37 17 -55 -5 -15 -19 -19 -20 -24 -6 -10 27 4
49 27 43 18 -5 20 -2 15 18 -3 13 -2 27 4 30 6 3 8 17 6 30 -3 13 2 29 10 36
20 17 17 39 -6 39 -21 0 -28 19 -7 21 15 2 41 -2 45 -6 2 -2 5 -11 6 -21 4
-27 26 -30 24 -2 -2 14 2 22 10 20 8 -1 12 11 13 35 1 21 3 30 6 21 4 -17 40
-34 50 -24 3 3 0 13 -7 21 -11 14 -10 17 8 22 12 3 22 9 22 13 0 13 -26 19
-40 10 -17 -11 -30 -4 -30 17 0 11 6 14 22 10 12 -4 28 -1 35 5 10 8 19 4 39
-17 23 -25 24 -29 10 -44 -22 -24 -20 -34 3 -22 21 12 31 5 31 -21 0 -21 -4
-22 -30 -8 -11 6 -21 6 -24 1 -3 -5 10 -12 30 -16 32 -5 35 -9 30 -30 -5 -20
-3 -23 11 -18 23 8 53 33 53 45 0 4 -7 8 -15 8 -10 0 -15 10 -15 30 0 17 -5
30 -11 30 -6 0 -9 -7 -6 -15 11 -28 -9 -23 -22 6 -11 25 -11 32 1 46 10 13 10
17 1 20 -15 5 -18 43 -3 43 5 0 7 6 4 14 -3 8 -1 23 4 32 9 15 11 14 27 -9 9
-14 14 -31 10 -37 -4 -6 -2 -17 4 -24 8 -10 5 -16 -14 -24 -29 -13 -34 -36 -6
-27 27 8 51 -4 52 -29 1 -11 5 -3 9 19 4 22 6 44 3 48 -5 8 15 37 26 37 6 0 7
-47 2 -60 -1 -3 -3 -24 -5 -47 -2 -42 -2 -43 28 -40 17 1 36 8 42 15 8 11 12
11 23 -2 16 -18 41 -10 41 14 0 15 6 17 38 13 26 -4 42 -1 50 10 10 12 8 15
-17 20 -25 5 -29 11 -33 47 -4 44 5 60 35 60 15 0 18 5 15 25 -4 21 -3 23 13
14 11 -5 19 -19 19 -29 0 -27 16 -25 35 4 20 30 72 42 94 22 9 -8 20 -15 26
-15 19 1 15 -20 -5 -23 -25 -4 -27 -23 -2 -24 37 -2 43 -4 37 -14 -3 -5 -2
-10 4 -10 6 0 8 12 4 32 -4 21 -3 29 5 24 6 -3 13 -2 17 3 8 14 -34 37 -74 40
-26 2 -16 47 12 56 13 4 17 8 10 11 -9 4 -6 12 8 27 11 12 18 26 15 33 -8 22
8 32 34 21 l25 -10 -25 -6 c-20 -6 -22 -8 -9 -13 9 -4 26 0 37 8 11 8 29 11
39 8 41 -13 102 -47 98 -54 -3 -5 4 -6 15 -3 12 3 20 0 20 -7 0 -7 8 -9 19 -5
10 3 25 0 32 -7 8 -7 20 -13 27 -14 28 -2 31 -5 26 -21 -5 -15 -4 -15 4 -4 9
12 13 12 26 2 19 -16 4 -53 -18 -45 -9 4 -14 -3 -13 -21 0 -23 3 -26 23 -21
16 4 24 2 24 -6 0 -7 9 0 19 15 l18 29 12 -33 c15 -44 14 -69 -4 -69 -8 0 -15
-5 -15 -11 0 -5 5 -7 10 -4 6 3 10 2 10 -4 0 -5 -3 -11 -7 -14 -5 -2 -3 -2 4
-1 7 2 15 -2 19 -8 4 -7 9 -6 15 3 13 21 11 -38 -3 -86 -6 -22 -12 -44 -12
-50 -1 -5 -6 -26 -13 -45 -6 -19 -13 -55 -16 -80 -2 -25 -2 -37 0 -27 3 9 9
15 14 12 15 -10 10 -88 -10 -177 -11 -46 -23 -108 -27 -138 -4 -30 -12 -59
-18 -63 -8 -6 -7 -10 2 -14 6 -2 12 -13 12 -24 0 -32 35 -78 91 -120 52 -39
57 -41 111 -36 46 4 68 12 108 42 50 37 50 37 49 91 -2 42 3 61 22 89 13 19
26 35 29 35 3 0 14 -15 24 -33 14 -22 20 -54 22 -107 l2 -74 -59 -74 c-63 -78
-113 -152 -151 -224 -20 -39 -23 -56 -22 -170 l1 -127 -29 21 c-16 11 -65 35
-109 53 -43 18 -107 54 -142 78 -77 55 -176 91 -230 84 -56 -8 -115 -51 -138
-100 -16 -36 -19 -67 -19 -207 0 -161 -12 -260 -44 -377 -8 -29 -12 -62 -9
-72 4 -15 -22 -47 -108 -133 -63 -62 -128 -131 -146 -154 -18 -22 -59 -68 -93
-102 -33 -34 -60 -65 -61 -69 0 -4 -5 -44 -10 -88 -6 -44 -13 -99 -16 -123 -6
-53 8 -72 56 -72 75 0 221 99 221 150 0 32 21 58 42 52 17 -4 23 6 19 36 -3
17 10 15 24 -5 16 -22 35 -8 35 27 0 16 11 41 25 57 l24 28 1 -27 c0 -16 4
-28 10 -28 5 0 7 7 4 15 -4 9 16 36 55 75 l61 60 52 -15 c29 -8 79 -28 112
-44 32 -17 62 -28 67 -25 14 8 11 97 -6 182 -13 63 -21 82 -46 104 -48 40 -34
59 64 91 45 15 114 32 153 37 39 5 100 17 135 26 35 9 107 20 159 24 52 4 137
14 189 21 l94 13 21 -26 c30 -36 265 -201 464 -325 75 -46 262 -95 443 -114
86 -10 142 -10 268 1 207 17 281 6 281 -43 0 -27 26 -133 40 -162 15 -34 18
-123 7 -281 -12 -171 -9 -192 64 -464 21 -80 39 -156 39 -170 0 -14 -17 -72
-38 -130 -41 -117 -166 -329 -240 -409 -24 -25 -61 -71 -82 -102 -42 -61 -67
-83 -143 -130 -47 -29 -102 -100 -114 -149 -3 -14 -17 -38 -30 -53 -31 -38
-30 -65 5 -79 34 -14 209 -14 243 0 28 11 79 88 79 119 1 17 1 17 11 1 14 -24
26 -23 35 4 11 36 48 88 62 88 7 0 15 7 18 15 4 8 12 15 19 15 33 0 115 140
115 195 0 8 5 15 10 15 6 0 10 -8 10 -17 0 -26 40 52 41 79 0 18 3 16 14 -12
l13 -35 0 53 c0 47 6 62 63 150 70 109 109 164 156 223 44 54 52 89 40 180 -5
45 -6 103 -1 139 l9 62 41 -38 c23 -22 48 -53 57 -69 29 -57 37 -172 26 -347
-11 -174 -17 -213 -47 -295 -23 -65 -37 -82 -87 -103 -64 -28 -120 -74 -148
-123 -15 -25 -27 -51 -27 -57 0 -6 -16 -28 -35 -48 -19 -20 -35 -42 -35 -48 0
-16 70 -31 180 -39 l95 -6 50 42 c39 32 51 38 53 25 6 -30 22 -16 28 24 6 39
8 40 25 24 10 -9 20 -26 22 -38 3 -15 5 -12 6 10 1 42 21 95 43 119 10 11 21
30 24 42 8 32 24 29 24 -4 0 -22 2 -25 10 -13 5 8 10 27 10 43 0 15 4 27 9 27
5 0 7 17 4 38 -4 28 -1 41 13 52 16 14 17 13 11 -17 -8 -42 -1 -42 16 -1 17
41 13 111 -8 162 -24 56 -11 56 19 -1 27 -53 35 -35 11 25 l-16 37 30 -35 c43
-50 40 -15 -4 51 -20 28 -38 56 -42 62 -3 5 5 4 17 -3 21 -11 21 -11 -4 32
l-25 43 14 125 c7 69 18 148 25 175 14 66 9 84 -54 168 -30 40 -84 131 -120
202 l-67 130 23 15 c37 24 169 143 218 196 118 127 204 302 230 470 17 110 21
124 35 124 74 0 127 -110 95 -196 -6 -15 -31 -109 -56 -208 -25 -100 -61 -213
-79 -253 -38 -82 -65 -190 -65 -260 0 -26 -7 -77 -15 -113 -36 -159 -59 -450
-36 -458 6 -2 11 -20 11 -40 0 -20 7 -68 16 -107 8 -38 21 -104 29 -145 8 -41
26 -129 40 -195 14 -66 25 -135 26 -155 1 -54 17 -8 19 55 2 41 4 45 10 25 4
-14 8 -40 9 -57 1 -33 21 -48 21 -15 0 24 -19 91 -36 129 -19 42 -30 123 -16
123 6 0 14 -15 17 -32 4 -18 16 -50 27 -71 10 -21 16 -42 13 -47 -3 -6 -2 -10
2 -10 5 0 17 -15 27 -32 10 -20 11 -25 3 -15 -9 11 -18 14 -21 8 -4 -5 -2 -12
2 -15 5 -3 15 -34 22 -68 15 -75 36 -106 26 -38 -4 25 -10 56 -13 70 -9 40 11
11 32 -45 10 -27 20 -44 22 -38 4 12 -51 153 -75 190 -7 12 -12 28 -9 35 2 7
18 -15 36 -50 28 -56 49 -84 35 -47 -4 8 -1 21 5 29 6 7 9 22 5 32 -5 18 -5
18 9 1 8 -9 27 -52 42 -95 28 -79 171 -382 181 -382 9 0 -7 74 -27 123 -11 27
-19 58 -17 70 2 18 8 12 27 -26 13 -27 30 -51 38 -54 8 -3 12 -12 9 -19 -3 -7
1 -30 9 -51 7 -21 14 -30 14 -20 1 11 5 15 13 11 7 -4 2 7 -11 24 -18 26 -19
32 -7 32 9 0 16 4 16 9 0 5 3 18 6 28 5 15 4 16 -6 3 -10 -13 -11 -12 -6 4 4
11 0 26 -10 38 -23 24 -15 31 12 10 11 -10 40 -57 63 -105 24 -48 47 -87 52
-87 11 0 11 -4 -5 50 -9 29 -10 53 -5 68 6 15 5 31 -2 43 -6 11 -9 25 -7 31 5
14 25 -36 32 -82 5 -30 13 -38 49 -53 l42 -18 -32 28 c-25 21 -34 39 -39 73
l-5 45 44 -49 c31 -35 46 -45 50 -35 4 9 6 10 6 2 2 -21 31 -15 31 6 0 18 2
19 31 4 16 -8 32 -13 34 -11 3 2 -13 26 -35 52 -22 27 -40 55 -40 64 0 8 -11
34 -24 56 -13 23 -29 61 -35 86 -13 48 -30 94 -67 178 -25 54 -66 193 -60 199
3 4 50 -125 61 -167 7 -30 45 -60 45 -36 0 7 -9 25 -20 38 -10 14 -22 45 -26
69 -4 24 -20 70 -36 103 -16 32 -28 60 -25 62 2 2 22 -21 45 -52 23 -31 42
-52 42 -47 0 6 -8 21 -19 34 -10 13 -22 40 -26 59 -3 19 -20 55 -37 79 -24 34
-28 45 -17 51 11 7 9 17 -8 52 -11 24 -23 70 -25 103 -3 33 -3 52 -1 43 7 -29
23 -20 23 12 0 17 -5 30 -11 30 -8 0 -9 14 -5 42 8 52 0 47 -13 -8 l-9 -39 -1
55 c0 30 2 73 6 95 5 31 8 35 14 20 4 -11 7 47 7 130 0 82 -4 157 -9 167 -6
11 -15 89 -20 176 -8 118 -18 187 -41 277 -17 66 -35 144 -40 173 -19 115
-101 223 -233 307 -32 21 -113 93 -180 161 -192 195 -354 343 -393 360 -42 18
-191 63 -332 101 -116 30 -122 33 -145 77 -19 36 -35 47 -35 24 0 -22 -37 23
-50 61 -9 30 -10 43 -1 57 11 18 12 18 6 -2 -4 -14 0 -24 10 -28 8 -3 15 -15
15 -26 0 -11 4 -20 9 -20 5 0 8 18 6 40 -4 43 4 49 29 24 9 -8 20 -13 25 -10
5 4 21 2 36 -4 17 -7 24 -7 20 0 -8 13 40 13 83 1 18 -6 43 -6 54 -2 18 7 14
9 -23 15 -24 5 -60 9 -80 11 -59 5 -79 14 -79 38 0 11 -10 32 -22 45 -22 24
-22 25 -3 20 11 -3 28 -9 38 -13 10 -4 17 -3 17 4 0 6 -6 11 -12 11 -7 1 -31
9 -53 20 -39 19 -39 19 -11 20 24 0 26 2 16 14 -9 12 -5 16 27 21 60 10 61 12
8 19 -65 9 -98 16 -94 20 10 8 60 16 56 9 -3 -5 13 -8 36 -8 23 1 61 -7 85
-18 24 -10 48 -17 54 -15 6 2 -11 12 -38 23 -27 10 -59 26 -71 35 -21 16 -21
17 -3 33 16 13 19 13 24 1 6 -14 36 -20 36 -6 0 4 -12 25 -26 46 l-27 39 39
-28 c21 -16 45 -36 52 -44 6 -8 12 -10 12 -4 0 14 -39 62 -103 126 -27 27 -46
51 -43 54 3 3 28 -14 56 -37 28 -23 54 -39 58 -36 3 4 2 10 -3 14 -6 4 -19 18
-30 31 l-20 24 20 -11 c11 -6 46 -35 78 -66 32 -31 60 -56 62 -56 2 0 1 10 -2
23 -4 16 10 7 58 -39 73 -69 117 -104 132 -104 6 0 -5 11 -23 25 -36 27 -79
74 -80 88 0 5 28 -16 62 -47 34 -30 64 -53 67 -50 3 2 -5 15 -17 27 -25 25
-82 97 -82 104 0 3 19 -9 42 -26 23 -17 49 -31 57 -31 9 0 2 9 -16 21 -31 20
-65 63 -69 87 -3 17 -24 42 -36 42 -5 0 -33 20 -61 44 -29 24 -72 56 -97 71
-25 16 -53 37 -62 47 -9 11 -21 17 -27 14 -12 -8 -41 3 -41 15 0 4 7 6 15 2 9
-3 22 2 30 13 12 17 9 23 -33 61 -33 30 -42 43 -29 43 10 0 20 -6 23 -13 2 -7
27 -26 54 -42 27 -16 47 -32 44 -37 -3 -4 1 -8 8 -8 7 0 29 -8 48 -18 44 -23
74 -19 60 8 -6 10 -19 21 -29 25 -10 3 -22 16 -25 30 -3 13 -19 29 -36 37 -32
14 -42 31 -12 22 9 -3 6 2 -8 10 -23 14 -23 15 -5 16 20 1 20 1 1 15 -18 14
-18 15 -2 15 34 0 5 19 -40 26 -26 4 -57 17 -72 30 -34 29 -11 32 29 3 16 -11
35 -19 42 -16 6 2 -3 11 -20 21 -18 9 -33 21 -33 26 0 13 6 13 41 -6 17 -8 33
-13 36 -10 7 6 -17 27 -104 92 -64 48 -76 64 -47 64 14 0 14 3 4 15 -27 33 2
26 37 -8 20 -20 43 -37 52 -37 11 1 7 7 -11 21 -15 11 -35 36 -44 54 -9 19
-31 46 -50 60 -19 15 -32 31 -28 36 3 6 -2 19 -12 30 -9 10 -13 19 -7 19 5 0
35 -26 65 -58 31 -32 65 -64 76 -72 103 -74 172 -119 172 -113 0 5 -22 23 -49
41 -57 39 -120 102 -102 102 6 0 40 -18 74 -41 34 -22 51 -31 37 -19 -14 11
-51 44 -82 72 -32 28 -63 55 -70 59 -7 4 -10 11 -6 14 7 8 117 -42 176 -79 59
-37 62 -29 4 10 -26 17 -76 50 -112 74 -56 37 -129 75 -247 126 -18 7 -33 17
-33 21 0 5 48 8 108 9 59 0 129 6 156 14 44 12 47 15 30 27 -16 12 -15 13 13
13 30 0 59 -21 46 -33 -3 -4 7 -7 23 -7 16 0 36 -4 44 -10 9 -6 17 -5 22 3 5
8 34 0 97 -26 50 -20 96 -37 103 -36 7 0 -4 7 -25 14 -48 18 -88 45 -65 45 8
0 34 -7 57 -15 22 -8 41 -10 41 -5 0 6 -4 10 -9 10 -5 0 -32 16 -60 35 -48 33
-57 36 -154 41 -61 4 -114 12 -132 22 -30 15 -30 15 -7 25 16 7 39 6 82 -6 73
-21 80 -21 80 -3 0 9 -21 17 -62 25 -123 21 -147 22 -167 11 -25 -13 -184 -23
-177 -11 3 5 -15 11 -40 14 -54 6 -66 15 -40 31 11 6 27 18 36 27 9 8 24 18
33 22 9 3 17 13 17 22 0 13 -7 15 -33 10 -20 -4 -43 -1 -61 9 -16 8 -33 13
-38 10 -16 -10 -50 7 -44 23 5 12 1 14 -19 9 -31 -8 -32 0 -2 25 18 15 19 18
5 19 -9 0 -20 -4 -23 -10 -3 -5 -12 -10 -18 -10 -7 0 4 14 23 30 35 30 35 30
8 24 -17 -4 -28 -2 -28 4 0 7 -14 9 -35 5 -50 -8 -43 4 13 21 l47 15 -37 0
c-20 1 -63 -6 -95 -14 -59 -16 -132 -20 -119 -8 4 4 19 9 34 11 37 5 41 12 6
12 -27 0 -27 1 -9 14 11 7 38 16 60 20 22 3 66 10 98 15 72 12 91 26 22 17
-27 -4 -68 -9 -90 -12 l-40 -5 24 21 c13 11 35 21 50 21 18 1 20 3 8 6 -11 3
-16 11 -13 19 3 8 0 14 -6 14 -9 0 -9 3 -1 11 13 13 65 20 57 7 -6 -9 37 -5
96 9 l25 6 -25 7 c-22 6 -19 8 20 14 131 20 180 30 176 33 -2 2 -61 -3 -131
-12 -70 -8 -129 -14 -131 -12 -10 9 79 39 123 42 26 1 63 3 81 3 19 1 31 6 27
12 -3 5 -19 7 -34 4 -16 -4 -37 -2 -46 4 -15 8 -14 10 11 18 28 8 27 8 -16 14
-25 3 -54 3 -64 1 -18 -4 -18 -5 -1 -18 16 -11 16 -13 3 -13 -9 0 -18 -4 -20
-9 -5 -14 -120 -68 -163 -76 -22 -5 -52 -7 -67 -6 -16 1 -35 -5 -44 -13 -8 -9
-30 -16 -47 -16 -18 -1 -49 -7 -70 -14 -38 -14 -71 -11 -94 7 -9 6 -18 5 -28
-3 -13 -11 -14 -10 -9 3 3 9 14 19 25 22 10 4 19 11 19 16 0 13 -14 11 -30 -3
-7 -7 -3 3 11 22 l23 34 -24 -17 c-13 -9 -36 -17 -50 -17 -14 0 -34 -6 -45
-14 -18 -12 -20 -12 -20 9 0 13 2 23 5 22 3 0 15 2 28 7 30 10 28 30 -3 24
-21 -4 -23 -3 -14 13 7 15 6 17 -6 13 -8 -4 -15 -1 -15 6 0 9 -7 7 -20 -5 -25
-23 -39 -12 -17 13 10 10 17 23 17 28 0 5 -9 -2 -19 -15 -28 -37 -34 -8 -6 33
13 20 21 36 16 36 -5 0 -16 -10 -24 -22 -12 -17 -16 -19 -16 -7 -1 8 4 20 11
27 23 23 -1 12 -28 -13 -15 -14 -35 -25 -43 -24 -29 2 -41 -1 -41 -11 0 -5 7
-10 15 -10 25 0 17 -17 -21 -40 -42 -26 -55 -20 -25 11 12 13 20 28 18 34 -3
5 0 19 5 30 5 11 -9 0 -31 -24 -23 -25 -41 -40 -41 -34 0 6 7 16 15 23 9 7 13
15 11 18 -3 2 -1 13 5 23 10 19 -3 61 -13 43z m-188 -144 c0 -5 -5 -9 -11 -7
-6 1 -14 -4 -16 -11 -3 -8 1 -10 11 -6 9 3 16 2 16 -2 0 -12 -59 -38 -67 -30
-3 3 2 8 11 12 9 3 13 10 10 15 -3 6 0 16 6 24 14 17 40 20 40 5z m-86 -33
c-5 -15 -56 -47 -73 -47 -24 0 -9 19 32 39 50 25 48 24 41 8z m-1139 -47 c-3
-5 -12 -7 -20 -3 -21 7 -19 13 6 13 11 0 18 -4 14 -10z m680 -9 c-3 -6 -11 -8
-17 -5 -6 4 -5 9 3 15 16 10 23 4 14 -10z m-171 -12 c-15 -16 -44 -16 -44 0 0
13 10 19 36 19 23 0 24 -2 8 -19z m-214 -14 c0 -8 -4 -17 -10 -20 -6 -4 -10 5
-10 20 0 15 4 24 10 20 6 -3 10 -12 10 -20z m286 -11 c-4 -9 -9 -15 -11 -12
-3 3 -3 13 1 22 4 9 9 15 11 12 3 -3 3 -13 -1 -22z m-596 -4 c0 -21 -24 -28
-35 -10 -8 14 3 30 21 30 8 0 14 -9 14 -20z m468 -4 c3 -13 -1 -17 -14 -14
-11 2 -20 11 -22 22 -3 13 1 17 14 14 11 -2 20 -11 22 -22z m387 5 c-3 -6 -11
-11 -17 -11 -6 0 -6 6 2 15 14 17 26 13 15 -4z m-1195 -1 c0 -5 -8 -10 -18
-10 -10 0 -27 -7 -38 -15 -10 -8 -26 -14 -34 -14 -9 0 -5 5 9 13 23 13 23 14
5 24 -16 10 -11 11 29 12 26 0 47 -4 47 -10z m265 -30 c-7 -22 -42 -24 -37 -2
1 7 -8 12 -20 13 -18 0 -15 3 12 14 40 14 55 6 45 -25z m575 13 c0 -5 -5 -15
-10 -23 -8 -12 -10 -11 -10 8 0 12 5 22 10 22 6 0 10 -3 10 -7z m-645 -23 c3
-5 2 -10 -4 -10 -5 0 -13 5 -16 10 -3 6 -2 10 4 10 5 0 13 -4 16 -10z m505
-12 c0 -19 -2 -20 -10 -8 -13 19 -13 30 0 30 6 0 10 -10 10 -22z m-780 -13
c10 -12 9 -16 -4 -21 -22 -8 -52 16 -34 27 18 12 24 11 38 -6z m592 -17 c-7
-7 -12 -8 -12 -2 0 14 12 26 19 19 2 -3 -1 -11 -7 -17z m-122 2 c0 -5 -9 -10
-20 -10 -11 0 -20 5 -20 10 0 6 9 10 20 10 11 0 20 -4 20 -10z m-220 -21 c0
-5 -7 -9 -15 -9 -15 0 -20 12 -9 23 8 8 24 -1 24 -14z m40 17 c0 -3 -4 -8 -10
-11 -5 -3 -10 -1 -10 4 0 6 5 11 10 11 6 0 10 -2 10 -4z m484 -11 c-6 -16 -24
-21 -24 -7 0 11 11 22 21 22 5 0 6 -7 3 -15z m36 -15 c0 -11 -4 -20 -10 -20
-5 0 -10 9 -10 20 0 11 5 20 10 20 6 0 10 -9 10 -20z m1498 13 c-10 -2 -26 -2
-35 0 -10 3 -2 5 17 5 19 0 27 -2 18 -5z m-2631 -19 c-3 -3 -12 -4 -19 -1 -8
3 -5 6 6 6 11 1 17 -2 13 -5z m346 -8 c17 -13 23 -36 9 -36 -16 0 -52 32 -47
41 8 12 16 11 38 -5z m-118 -26 c0 -7 -6 -15 -12 -17 -8 -3 -13 4 -13 17 0 13
5 20 13 18 6 -3 12 -11 12 -18z m515 5 c0 -8 -7 -15 -15 -15 -16 0 -20 12 -8
23 11 12 23 8 23 -8z m135 -3 c0 -18 -20 -15 -23 4 -3 10 1 15 10 12 7 -3 13
-10 13 -16z m79 -14 c-3 -12 -1 -24 6 -28 15 -9 5 -30 -14 -30 -18 0 -27 37
-15 67 11 29 33 21 23 -9z m135 16 c6 4 11 1 11 -7 0 -17 -47 -29 -56 -15 -3
5 0 16 7 24 9 11 14 12 19 3 4 -6 13 -8 19 -5z m111 -14 c0 -11 -6 -20 -14
-20 -18 0 -29 16 -21 30 11 18 35 11 35 -10z m-50 -23 c0 -5 -4 -5 -10 -2 -5
3 -10 14 -10 23 0 15 2 15 10 2 5 -8 10 -19 10 -23z m1540 17 c0 -2 -17 -4
-37 -3 -33 1 -35 2 -13 8 23 7 50 4 50 -5z m100 -4 c0 -5 -11 -10 -25 -10 -14
0 -25 5 -25 10 0 6 11 10 25 10 14 0 25 -4 25 -10z m120 2 c0 -10 -73 -32
-107 -32 -41 0 -18 14 45 26 31 6 58 12 60 13 1 0 2 -2 2 -7z m-2990 -32 c0
-5 -2 -10 -4 -10 -3 0 -8 5 -11 10 -3 6 -1 10 4 10 6 0 11 -4 11 -10z m1180 0
c0 -5 -7 -10 -15 -10 -8 0 -15 5 -15 10 0 6 7 10 15 10 8 0 15 -4 15 -10z
m-72 -23 c2 -10 -3 -17 -12 -17 -18 0 -29 16 -21 31 9 14 29 6 33 -14z m-658
-12 c0 -8 -4 -15 -9 -15 -13 0 -22 16 -14 24 11 11 23 6 23 -9z m270 -26 c0
-5 -7 -9 -15 -9 -15 0 -20 12 -9 23 8 8 24 -1 24 -14z m-490 -15 c0 -16 -16
-19 -25 -4 -8 13 4 32 16 25 5 -4 9 -13 9 -21z m433 20 c9 -9 -4 -35 -14 -28
-5 3 -9 12 -9 20 0 14 12 19 23 8z m-923 -35 c0 -11 -4 -17 -10 -14 -5 3 -10
13 -10 21 0 8 5 14 10 14 6 0 10 -9 10 -21z m265 11 c-3 -5 -10 -10 -16 -10
-5 0 -9 5 -9 10 0 6 7 10 16 10 8 0 12 -4 9 -10z m88 -5 c8 -18 -11 -31 -25
-17 -11 11 -3 32 12 32 4 0 10 -7 13 -15z m289 -5 c17 -15 19 -23 10 -32 -9
-9 -13 -7 -18 5 -3 9 -12 17 -20 17 -8 0 -14 7 -14 15 0 21 17 19 42 -5z
m-542 -21 c0 -5 -7 -9 -15 -9 -15 0 -20 12 -9 23 8 8 24 -1 24 -14z m-60 -10
c0 -5 -4 -9 -10 -9 -5 0 -10 7 -10 16 0 8 5 12 10 9 6 -3 10 -10 10 -16z m352
6 c0 -5 -5 -11 -11 -13 -6 -2 -11 4 -11 13 0 9 5 15 11 13 6 -2 11 -8 11 -13z
m668 5 c0 -5 -4 -10 -10 -10 -5 0 -10 5 -10 10 0 6 5 10 10 10 6 0 10 -4 10
-10z m-1100 -14 c0 -8 -4 -17 -9 -21 -12 -7 -24 12 -16 25 9 15 25 12 25 -4z
m1211 -5 c14 23 34 -4 20 -28 -6 -10 -11 -13 -11 -7 0 6 -12 16 -27 23 -22 10
-24 14 -12 21 10 7 15 5 18 -7 2 -13 5 -13 12 -2z m197 2 c-1 -10 1 -23 5 -30
13 -20 -14 -26 -32 -7 -15 17 -15 20 -2 36 20 23 33 23 29 1z m56 8 c3 -5 -1
-15 -10 -22 -13 -10 -17 -10 -24 1 -5 8 -6 18 -4 22 7 11 31 10 38 -1z m87
-42 c-9 -23 -10 -22 -10 11 -1 23 2 31 9 24 7 -7 7 -19 1 -35z m-625 16 c4 -8
13 -15 22 -15 11 0 13 -3 5 -11 -6 -6 -27 -9 -47 -7 -37 3 -37 3 -19 25 21 27
31 29 39 8z m-796 -15 c0 -5 -4 -10 -10 -10 -5 0 -10 5 -10 10 0 6 5 10 10 10
6 0 10 -4 10 -10z m175 0 c-3 -5 -10 -10 -16 -10 -5 0 -9 5 -9 10 0 6 7 10 16
10 8 0 12 -4 9 -10z m828 -21 c-15 -15 -85 -22 -103 -10 -25 17 -2 24 31 10
29 -12 34 -11 48 8 10 13 20 18 26 12 5 -6 5 -13 -2 -20z m-623 11 c0 -5 -7
-10 -16 -10 -8 0 -12 5 -9 10 3 6 10 10 16 10 5 0 9 -4 9 -10z m95 -1 c10 -15
-1 -23 -20 -15 -9 3 -13 10 -10 16 8 13 22 13 30 -1z m665 -19 c0 -11 -4 -20
-10 -20 -5 0 -10 2 -10 4 0 2 -3 11 -6 20 -4 11 -1 16 10 16 9 0 16 -8 16 -20z
m-1030 -5 c0 -8 -7 -15 -15 -15 -8 0 -15 7 -15 15 0 8 7 15 15 15 8 0 15 -7
15 -15z m1275 6 c3 -5 0 -13 -6 -16 -5 -4 -8 -13 -5 -21 3 -8 0 -14 -8 -14 -8
0 -11 10 -8 30 4 30 16 39 27 21z m-955 -21 c0 -5 -7 -10 -15 -10 -8 0 -15 5
-15 10 0 6 7 10 15 10 8 0 15 -4 15 -10z m50 0 c0 -5 -2 -10 -4 -10 -3 0 -8 5
-11 10 -3 6 -1 10 4 10 6 0 11 -4 11 -10z m110 3 c0 -5 -18 -9 -40 -9 -22 -1
-37 2 -34 7 6 11 74 12 74 2z m-461 -70 c-15 -17 -32 -2 -23 21 5 13 9 14 20
5 11 -9 12 -15 3 -26z m544 3 c-3 -13 -14 -26 -24 -29 -21 -6 -24 5 -9 34 15
28 38 24 33 -5z m54 18 c-3 -3 -12 -4 -19 -1 -8 3 -5 6 6 6 11 1 17 -2 13 -5z
m2823 -4 c-20 -13 -110 -13 -110 0 0 6 27 10 63 10 44 0 58 -3 47 -10z m-3760
-10 c0 -5 -4 -10 -10 -10 -5 0 -10 5 -10 10 0 6 5 10 10 10 6 0 10 -4 10 -10z
m995 0 c18 -8 17 -9 -7 -9 -16 -1 -28 4 -28 9 0 12 8 12 35 0z m2643 -5 c11
-11 -5 -14 -41 -8 -20 3 -37 10 -37 16 0 10 67 3 78 -8z m-3498 -15 c0 -5 -4
-10 -10 -10 -5 0 -10 5 -10 10 0 6 5 10 10 10 6 0 10 -4 10 -10z m3960 -15
c15 -18 9 -18 -55 -1 l-50 14 46 1 c30 1 51 -4 59 -14z m-3790 -10 c0 -8 -4
-15 -10 -15 -5 0 -10 7 -10 15 0 8 5 15 10 15 6 0 10 -7 10 -15z m726 -7 c-3
-13 -6 -26 -6 -30 0 -5 -5 -8 -11 -8 -6 0 -9 7 -6 15 11 26 -11 26 -31 -1 -19
-28 -42 -26 -42 3 0 9 6 13 15 9 9 -3 15 0 15 10 0 12 -6 15 -26 10 -17 -5
-23 -3 -19 4 3 5 31 10 62 10 53 0 55 -1 49 -22z m-1086 2 c0 -5 -7 -10 -16
-10 -8 0 -12 5 -9 10 3 6 10 10 16 10 5 0 9 -4 9 -10z m528 -8 c2 -7 -3 -12
-12 -12 -9 0 -16 7 -16 16 0 17 22 14 28 -4z m387 -12 c11 -17 -5 -32 -21 -19
-8 6 -14 15 -14 20 0 12 27 11 35 -1z m195 -29 c-6 -12 -15 -21 -21 -21 -10 0
-5 13 14 38 15 19 20 7 7 -17z m-1005 10 c7 -12 -12 -24 -25 -16 -11 7 -4 25
10 25 5 0 11 -4 15 -9z m-55 -11 c0 -5 -5 -10 -11 -10 -5 0 -7 5 -4 10 3 6 8
10 11 10 2 0 4 -4 4 -10z m352 -25 c0 -5 -5 -11 -11 -13 -6 -2 -11 4 -11 13 0
9 5 15 11 13 6 -2 11 -8 11 -13z m-285 -27 c-3 -7 -5 -2 -5 12 0 14 2 19 5 13
2 -7 2 -19 0 -25z m661 13 c-5 -23 -35 -38 -49 -24 -9 9 -9 16 0 27 16 19 53
17 49 -3z m-88 -6 c0 -8 7 -15 15 -15 17 0 20 -25 5 -35 -6 -3 -13 2 -17 12
-3 10 -13 22 -20 26 -7 5 -11 12 -8 18 9 14 25 11 25 -6z m160 -9 c0 -14 -5
-28 -11 -32 -8 -4 -7 -9 2 -15 11 -7 9 -12 -8 -24 -13 -9 -23 -25 -23 -36 0
-10 -4 -19 -10 -19 -5 0 -10 7 -10 15 0 8 -7 15 -15 15 -21 0 -19 13 5 35 11
10 22 33 26 51 8 42 44 50 44 10z m115 -6 c-5 -8 -11 -8 -17 -2 -6 6 -7 16 -3
22 5 8 11 8 17 2 6 -6 7 -16 3 -22z m-1055 6 c0 -8 -4 -18 -10 -21 -5 -3 -10
3 -10 14 0 12 5 21 10 21 6 0 10 -6 10 -14z m570 -38 c0 -5 -7 -8 -15 -8 -8 0
-15 3 -15 8 0 4 -3 18 -6 32 l-6 25 21 -25 c11 -14 21 -28 21 -32z m610 27 c0
-29 0 -29 -35 -13 -37 17 -31 38 12 38 18 0 23 -5 23 -25z m-175 -6 c0 -7 -8
-15 -17 -17 -18 -3 -25 18 -11 32 10 10 28 1 28 -15z m-1109 -11 c-3 -13 -6
-29 -6 -35 0 -15 -26 -17 -35 -3 -7 11 25 59 39 60 4 0 6 -10 2 -22z m758 -14
c9 -22 -3 -32 -14 -14 -12 19 -12 30 -1 30 5 0 12 -7 15 -16z m-354 -4 c0 -5
-4 -10 -10 -10 -5 0 -10 5 -10 10 0 6 5 10 10 10 6 0 10 -4 10 -10z m100 -10
c0 -5 -4 -10 -10 -10 -5 0 -10 5 -10 10 0 6 5 10 10 10 6 0 10 -4 10 -10z
m380 0 c0 -5 -4 -10 -9 -10 -6 0 -13 5 -16 10 -3 6 1 10 9 10 9 0 16 -4 16
-10z m870 -9 c0 -6 -4 -13 -10 -16 -5 -3 -10 1 -10 9 0 9 5 16 10 16 6 0 10
-4 10 -9z m-1292 -35 c3 -12 -1 -17 -10 -14 -7 3 -15 13 -16 22 -3 12 1 17 10
14 7 -3 15 -13 16 -22z m111 -32 c-15 -18 -22 -13 -13 10 3 9 10 13 16 10 5
-3 4 -12 -3 -20z m-719 -2 c0 -4 -11 -9 -25 -10 -14 -1 -25 3 -25 8 0 6 11 10
25 10 14 0 25 -4 25 -8z m525 -13 c10 -15 -1 -23 -20 -15 -9 3 -13 10 -10 16
8 13 22 13 30 -1z m3530 1 c3 -5 -1 -10 -9 -10 -9 0 -16 5 -16 10 0 6 4 10 9
10 6 0 13 -4 16 -10z m-3985 -10 c0 -5 -4 -10 -10 -10 -5 0 -10 5 -10 10 0 6
5 10 10 10 6 0 10 -4 10 -10z m1088 -18 c3 -17 -2 -22 -20 -22 -27 0 -48 17
-48 38 0 9 10 12 33 9 24 -2 33 -9 35 -25z m-1319 -13 c-16 -10 -23 -4 -14 10
3 6 11 8 17 5 6 -4 5 -9 -3 -15z m4265 6 c11 -8 17 -17 14 -21 -7 -6 -48 17
-48 28 0 12 13 9 34 -7z m-3674 -33 c0 -14 -11 -21 -26 -15 -21 8 -17 23 6 23
11 0 20 -4 20 -8z m748 -14 c-3 -7 -11 -13 -18 -13 -7 0 -15 6 -17 13 -3 7 4
12 17 12 13 0 20 -5 18 -12z m-408 -49 c0 -5 -4 -9 -10 -9 -5 0 -10 7 -10 16
0 8 5 12 10 9 6 -3 10 -10 10 -16z m-180 -33 c0 -16 -18 -31 -27 -22 -8 8 5
36 17 36 5 0 10 -6 10 -14z m-446 -4 c8 -13 -11 -35 -23 -28 -16 10 -14 36 3
36 8 0 17 -4 20 -8z m75 -38 c-14 -18 -24 -11 -15 11 3 9 11 13 16 10 8 -5 7
-11 -1 -21z m271 0 c0 -17 -22 -14 -28 4 -2 7 3 12 12 12 9 0 16 -7 16 -16z
m-480 -4 c0 -5 -4 -10 -10 -10 -5 0 -10 5 -10 10 0 6 5 10 10 10 6 0 10 -4 10
-10z m310 -32 c0 -19 -2 -20 -10 -8 -13 19 -13 30 0 30 6 0 10 -10 10 -22z
m98 -6 c2 -7 -3 -12 -12 -12 -9 0 -16 7 -16 16 0 17 22 14 28 -4z m3737 8 c3
-6 -1 -7 -9 -4 -18 7 -21 14 -7 14 6 0 13 -4 16 -10z m-4225 -30 c0 -5 -4 -10
-10 -10 -5 0 -10 5 -10 10 0 6 5 10 10 10 6 0 10 -4 10 -10z m379 -37 c1 -8
-12 -13 -34 -13 -19 0 -35 5 -35 10 0 6 8 10 19 10 11 0 22 10 25 23 7 21 7
21 16 2 5 -11 9 -26 9 -32z m-599 -14 c0 -25 -33 -22 -38 4 -2 12 3 17 17 17
15 0 21 -6 21 -21z m830 -49 c0 -29 -4 -40 -15 -40 -17 0 -18 4 -9 49 9 44 24
39 24 -9z m-300 20 c0 -5 -4 -10 -10 -10 -5 0 -10 5 -10 10 0 6 5 10 10 10 6
0 10 -4 10 -10z m50 6 c0 -2 -3 -11 -6 -20 -9 -23 -24 -20 -24 4 0 11 7 20 15
20 8 0 15 -2 15 -4z m130 -19 c0 -14 -35 -47 -50 -47 -6 0 -10 7 -10 15 0 8 6
15 14 15 8 0 16 7 20 15 7 18 26 20 26 2z m-790 -42 c0 -8 -4 -15 -10 -15 -5
0 -10 7 -10 15 0 8 5 15 10 15 6 0 10 -7 10 -15z m1136 -12 c-10 -10 -19 5
-10 18 6 11 8 11 12 0 2 -7 1 -15 -2 -18z m-292 -7 c-7 -19 -35 -18 -41 1 -2
6 6 13 19 15 29 5 30 4 22 -16z m-142 -1 c0 -5 -5 -11 -11 -13 -6 -2 -11 4
-11 13 0 9 5 15 11 13 6 -2 11 -8 11 -13z m-652 -35 c6 0 8 -5 5 -10 -4 -7
-14 -3 -26 11 -10 12 -16 26 -12 32 3 6 10 1 14 -11 5 -12 13 -22 19 -22z
m475 30 c3 -5 1 -10 -4 -10 -6 0 -11 5 -11 10 0 6 2 10 4 10 3 0 8 -4 11 -10z
m214 -47 c12 -41 6 -56 -13 -31 -6 9 -23 18 -36 20 -13 1 -26 9 -28 17 -3 10
1 12 16 9 13 -4 23 0 26 8 10 25 25 15 35 -23z m406 -3 c-9 -15 -35 -12 -35 3
0 7 5 18 12 25 9 9 14 9 21 -3 4 -8 5 -20 2 -25z m-333 -6 c10 -21 9 -27 -3
-35 -8 -5 -10 -9 -5 -9 10 0 -13 -30 -23 -30 -5 0 -7 88 -2 98 5 10 23 -3 33
-24z m128 22 c0 -11 -19 -15 -25 -6 -3 5 1 10 9 10 9 0 16 -2 16 -4z m-460
-16 c0 -5 -4 -10 -10 -10 -5 0 -10 5 -10 10 0 6 5 10 10 10 6 0 10 -4 10 -10z
m60 -30 c0 -5 -7 -10 -15 -10 -8 0 -15 5 -15 10 0 6 7 10 15 10 8 0 15 -4 15
-10z m365 -30 c-5 -8 -11 -8 -17 -2 -6 6 -7 16 -3 22 5 8 11 8 17 2 6 -6 7
-16 3 -22z m239 24 c25 -9 19 -24 -9 -24 -16 0 -25 6 -25 15 0 16 9 19 34 9z
m-441 -19 c4 -8 2 -17 -4 -20 -11 -7 -41 20 -32 29 11 11 31 6 36 -9z m307
-26 c0 -11 -4 -17 -10 -14 -5 3 -10 13 -10 21 0 8 5 14 10 14 6 0 10 -9 10
-21z m-50 3 c0 -16 -39 -42 -46 -30 -4 6 1 17 11 25 21 15 35 17 35 5z m-970
-18 c0 -8 -4 -12 -10 -9 -5 3 -10 10 -10 16 0 5 5 9 10 9 6 0 10 -7 10 -16z
m1166 5 c7 -12 -15 -31 -31 -26 -5 2 -11 11 -13 20 -4 19 32 24 44 6z m-986
-9 c0 -5 -4 -10 -10 -10 -5 0 -10 5 -10 10 0 6 5 10 10 10 6 0 10 -4 10 -10z
m398 -1 c-2 -6 -8 -10 -13 -10 -5 0 -11 4 -13 10 -2 6 4 11 13 11 9 0 15 -5
13 -11z m207 -35 c14 -15 14 -18 0 -33 -8 -10 -15 -23 -15 -29 0 -7 -5 -12
-11 -12 -7 0 -9 9 -5 24 4 15 0 28 -10 36 -12 11 -12 15 -2 21 18 12 24 11 43
-7z m303 -2 c2 -7 -3 -12 -12 -12 -9 0 -16 7 -16 16 0 17 22 14 28 -4z m3660
-54 c28 -21 52 -41 52 -43 0 -14 -119 57 -134 80 -17 26 -17 26 6 14 13 -7 47
-30 76 -51z m-3628 42 c0 -5 -2 -10 -4 -10 -3 0 -8 5 -11 10 -3 6 -1 10 4 10
6 0 11 -4 11 -10z m43 -22 c6 -21 -4 -48 -19 -48 -8 0 -14 5 -14 10 0 6 -7 10
-15 10 -23 0 -18 19 8 30 30 12 35 12 40 -2z m-249 -29 c3 -17 3 -35 0 -40 -9
-15 -24 0 -24 25 0 12 -5 27 -12 34 -9 9 -7 12 9 12 15 0 22 -8 27 -31z m3561
11 c3 -5 2 -10 -4 -10 -5 0 -13 5 -16 10 -3 6 -2 10 4 10 5 0 13 -4 16 -10z
m-3945 -15 c0 -8 -7 -15 -15 -15 -9 0 -12 6 -9 15 4 8 10 15 15 15 5 0 9 -7 9
-15z m-485 -5 c-3 -5 -13 -10 -21 -10 -8 0 -14 5 -14 10 0 6 9 10 21 10 11 0
17 -4 14 -10z m780 0 c3 -5 3 -21 -1 -35 -4 -18 -11 -24 -22 -20 -8 3 -19 0
-23 -7 -6 -10 -13 -10 -26 -2 -24 15 -28 34 -6 34 11 0 28 9 39 19 22 23 30
25 39 11z m-855 -10 c0 -5 -4 -10 -10 -10 -5 0 -10 5 -10 10 0 6 5 10 10 10 6
0 10 -4 10 -10z m475 0 c3 -5 -1 -10 -10 -10 -9 0 -13 5 -10 10 3 6 8 10 10
10 2 0 7 -4 10 -10z m650 0 c3 -5 1 -10 -4 -10 -6 0 -11 5 -11 10 0 6 2 10 4
10 3 0 8 -4 11 -10z m-95 -4 c0 -11 -19 -15 -25 -6 -3 5 1 10 9 10 9 0 16 -2
16 -4z m3539 -52 c11 -19 16 -34 10 -34 -5 0 -15 12 -22 28 -6 15 -17 31 -24
35 -7 4 -13 13 -13 19 0 16 26 -9 49 -48z m319 11 c-3 -3 -9 2 -12 12 -6 14
-5 15 5 6 7 -7 10 -15 7 -18z m-4473 -16 c-8 -12 -35 -12 -35 0 0 11 22 20 33
14 4 -2 5 -9 2 -14z m597 9 c-9 -9 -15 -9 -24 0 -9 9 -7 12 12 12 19 0 21 -3
12 -12z m3829 -8 c31 -26 15 -26 -18 0 -14 11 -21 20 -15 20 5 0 20 -9 33 -20z
m-4998 -17 c-7 -2 -19 -2 -25 0 -7 3 -2 5 12 5 14 0 19 -2 13 -5z m453 -34
c10 -17 -13 -36 -27 -22 -12 12 -4 33 11 33 5 0 12 -5 16 -11z m199 -19 c-5
-8 -11 -8 -17 -2 -6 6 -7 16 -3 22 5 8 11 8 17 2 6 -6 7 -16 3 -22z m305 14
c0 -9 -7 -14 -17 -12 -25 5 -28 28 -4 28 12 0 21 -6 21 -16z m376 5 c5 -8 8
-8 13 0 4 6 12 -3 18 -19 7 -18 7 -32 2 -36 -5 -3 -9 0 -9 5 0 6 -7 11 -16 11
-8 0 -12 -4 -9 -10 3 -5 0 -10 -7 -10 -17 0 -77 49 -61 50 6 0 15 -5 19 -12 5
-7 10 -4 15 10 9 24 24 28 35 11z m-162 -31 c22 -30 20 -48 -4 -48 -11 0 -20
6 -20 13 0 6 -3 22 -6 35 -8 29 10 29 30 0z m3567 -5 l24 -27 -24 15 c-14 9
-27 21 -29 27 -6 19 3 14 29 -15z m-4571 2 c0 -8 -4 -15 -10 -15 -5 0 -10 7
-10 15 0 8 5 15 10 15 6 0 10 -7 10 -15z m654 -2 c4 -9 -6 -13 -34 -13 -28 0
-40 4 -40 14 0 18 67 17 74 -1z m401 9 c6 -4 16 -19 24 -35 11 -21 12 -30 3
-39 -17 -17 -52 18 -52 54 0 28 7 34 25 20z m-965 -50 c-15 -5 -62 27 -55 38
3 6 20 0 36 -12 17 -13 25 -24 19 -26z m345 18 c-4 -6 -1 -18 6 -26 16 -19 -4
-45 -22 -27 -12 12 -2 63 13 63 5 0 6 -5 3 -10z m393 -2 c-9 -7 -18 -22 -21
-33 -3 -13 -5 -8 -6 13 -1 27 3 32 21 32 19 0 20 -1 6 -12z m-1081 -20 c-3 -8
-6 -5 -6 6 -1 11 2 17 5 13 3 -3 4 -12 1 -19z m776 7 c7 -16 -8 -29 -23 -20
-15 9 -12 35 4 35 8 0 16 -7 19 -15z m202 6 c3 -5 1 -12 -5 -16 -5 -3 -10 1
-10 9 0 18 6 21 15 7z m-845 -36 c0 -8 -4 -15 -10 -15 -5 0 -10 7 -10 15 0 8
5 15 10 15 6 0 10 -7 10 -15z m600 -16 c0 -5 -7 -9 -15 -9 -9 0 -12 6 -9 15 6
15 24 11 24 -6z m-732 -26 c1 -13 -2 -32 -7 -41 -7 -13 -10 -12 -15 6 -5 14
-13 19 -24 16 -15 -5 -14 -4 1 6 11 7 16 18 12 30 -4 14 -2 17 12 14 11 -3 20
-16 21 -31z m882 17 c0 -5 -4 -10 -10 -10 -5 0 -10 5 -10 10 0 6 5 10 10 10 6
0 10 -4 10 -10z m-422 -12 c-3 -7 -13 -13 -23 -13 -10 0 -20 6 -22 13 -3 7 5
12 22 12 17 0 25 -5 23 -12z m460 -16 c2 -7 -3 -12 -12 -12 -9 0 -16 7 -16 16
0 17 22 14 28 -4z m-248 -13 c0 -6 7 -17 15 -25 21 -22 19 -36 -6 -32 -16 2
-22 11 -24 36 -2 17 1 32 6 32 5 0 9 -5 9 -11z m-72 -23 c3 -13 -1 -17 -14
-14 -11 2 -20 11 -22 22 -3 13 1 17 14 14 11 -2 20 -11 22 -22z m352 -1 c0 -8
-7 -15 -15 -15 -16 0 -20 12 -8 23 11 12 23 8 23 -8z m-898 -15 c10 0 18 -6
18 -14 0 -10 -10 -13 -36 -11 -44 4 -51 10 -34 30 9 11 16 13 24 5 5 -5 18
-10 28 -10z m712 4 c7 -19 -13 -66 -31 -72 -22 -7 -14 25 10 42 15 12 18 18
10 22 -15 6 -17 24 -4 24 5 0 12 -7 15 -16z m306 -3 c0 -5 -7 -14 -15 -21 -12
-10 -15 -10 -15 2 0 8 3 18 7 21 9 10 23 9 23 -2z m-86 -17 c9 -22 8 -24 -9
-24 -8 0 -15 9 -15 20 0 24 15 27 24 4z m-827 -26 c-3 -8 -6 -5 -6 6 -1 11 2
17 5 13 3 -3 4 -12 1 -19z m-94 -4 c3 -3 3 -12 0 -20 -4 -10 -9 -11 -23 -1
-14 8 -16 13 -7 19 15 9 22 10 30 2z m680 -50 c8 -8 -3 -34 -14 -34 -5 0 -9 9
-9 20 0 19 11 26 23 14z m-153 -75 c13 -23 8 -35 -9 -24 -6 3 -8 11 -5 17 4 6
0 14 -7 19 -10 6 -10 9 -2 9 7 0 17 -9 23 -21z m-610 -4 c0 -8 -7 -15 -15 -15
-8 0 -15 7 -15 15 0 8 7 15 15 15 8 0 15 -7 15 -15z m267 9 c-3 -3 -12 -4 -19
-1 -8 3 -5 6 6 6 11 1 17 -2 13 -5z m517 -13 c9 -14 -4 -41 -20 -41 -8 0 -14
8 -14 18 0 29 22 43 34 23z m-684 -21 c0 -5 -4 -10 -10 -10 -5 0 -10 5 -10 10
0 6 5 10 10 10 6 0 10 -4 10 -10z m-95 -21 c10 -15 -1 -23 -20 -15 -9 3 -13
10 -10 16 8 13 22 13 30 -1z m715 1 c0 -5 -7 -10 -15 -10 -8 0 -15 5 -15 10 0
6 7 10 15 10 8 0 15 -4 15 -10z m-35 -30 c-3 -5 -10 -10 -16 -10 -5 0 -9 5 -9
10 0 6 7 10 16 10 8 0 12 -4 9 -10z m82 -22 c-3 -8 -6 -5 -6 6 -1 11 2 17 5
13 3 -3 4 -12 1 -19z m-507 -20 c0 -16 -3 -19 -11 -11 -6 6 -8 16 -5 22 11 17
16 13 16 -11z m-190 -8 c0 -5 -2 -10 -4 -10 -3 0 -8 5 -11 10 -3 6 -1 10 4 10
6 0 11 -4 11 -10z m-115 -9 c3 -5 1 -12 -5 -16 -5 -3 -10 1 -10 9 0 18 6 21
15 7z m495 -17 c0 -8 -4 -12 -10 -9 -5 3 -10 10 -10 16 0 5 5 9 10 9 6 0 10
-7 10 -16z m240 -59 c0 -3 -6 -5 -12 -5 -15 0 -40 49 -32 62 5 8 44 -43 44
-57z m-470 35 c0 -5 -4 -10 -10 -10 -5 0 -10 5 -10 10 0 6 5 10 10 10 6 0 10
-4 10 -10z m200 -16 c0 -8 -4 -12 -10 -9 -5 3 -10 10 -10 16 0 5 5 9 10 9 6 0
10 -7 10 -16z m120 -19 c0 -8 -7 -15 -15 -15 -9 0 -12 6 -9 15 4 8 10 15 15
15 5 0 9 -7 9 -15z m-503 -13 c8 -5 6 -13 -7 -30 -18 -22 -19 -22 -25 -2 -10
32 6 49 32 32z m363 -7 c0 -8 -4 -15 -9 -15 -5 0 -11 7 -15 15 -3 9 0 15 9 15
8 0 15 -7 15 -15z m257 -1 c-3 -3 -12 -4 -19 -1 -8 3 -5 6 6 6 11 1 17 -2 13
-5z m-57 -24 c0 -5 -4 -10 -10 -10 -5 0 -10 5 -10 10 0 6 5 10 10 10 6 0 10
-4 10 -10z m-212 -25 c2 -15 1 -16 -6 -7 -5 8 -13 13 -18 12 -5 -1 -10 4 -12
10 -3 7 3 10 14 8 10 -2 20 -12 22 -23z m-121 -17 c-3 -8 -6 -5 -6 6 -1 11 2
17 5 13 3 -3 4 -12 1 -19z m53 2 c0 -5 -7 -10 -16 -10 -8 0 -12 5 -9 10 3 6
10 10 16 10 5 0 9 -4 9 -10z m324 -16 c11 -28 6 -34 -14 -22 -11 7 -20 18 -20
25 0 18 27 16 34 -3z m-594 -4 c23 -13 16 -40 -11 -40 -14 0 -19 7 -19 25 0
28 3 29 30 15z m163 4 c7 -7 -13 -54 -23 -54 -15 0 -18 13 -8 36 11 24 20 29
31 18z m37 -13 c0 -6 -4 -13 -10 -16 -5 -3 -10 1 -10 9 0 9 5 16 10 16 6 0 10
-4 10 -9z m230 2 c0 -9 -31 -43 -40 -43 -5 0 -6 33 -1 48 2 5 41 1 41 -5z
m100 -15 c0 -9 3 -8 10 2 14 23 32 -2 24 -34 -8 -32 -17 -33 -44 -4 -21 23
-24 31 -13 41 10 11 23 8 23 -5z m1893 -109 l37 -44 -47 -17 c-27 -9 -60 -17
-75 -17 -23 -1 -28 3 -28 24 0 13 8 28 17 34 17 9 16 11 -5 33 -23 25 -26 45
-15 87 6 24 7 24 42 -16 20 -22 53 -60 74 -84z m-1563 90 c0 -11 -4 -17 -10
-14 -5 3 -10 1 -10 -4 0 -6 -4 -11 -10 -11 -5 0 -10 9 -10 21 0 15 5 19 15 15
8 -3 15 -1 15 4 0 6 2 10 5 10 3 0 5 -9 5 -21z m-962 -11 c17 -17 15 -28 -5
-28 -9 0 -13 3 -10 7 4 3 2 12 -4 20 -14 16 3 17 19 1z m90 -20 c7 -10 24 -18
36 -18 22 0 23 -4 21 -54 -4 -82 -18 -96 -47 -46 -13 24 -24 30 -49 30 l-32 0
21 23 c12 13 21 25 18 28 -2 2 -6 16 -10 30 -5 21 -2 26 12 25 9 0 23 -9 30
-18z m108 -15 c-7 -17 -8 -17 -17 0 -12 21 -2 44 13 29 6 -6 8 -19 4 -29z
m524 8 c5 -11 7 -26 4 -35 -5 -13 -8 -13 -25 3 -12 11 -17 25 -13 34 8 22 21
21 34 -2z m-200 -62 c0 -5 -4 -9 -10 -9 -5 0 -10 7 -10 16 0 8 5 12 10 9 6 -3
10 -10 10 -16z m-190 1 c0 -5 -4 -10 -10 -10 -5 0 -10 5 -10 10 0 6 5 10 10
10 6 0 10 -4 10 -10z m590 0 c0 -5 -4 -10 -10 -10 -5 0 -10 5 -10 10 0 6 5 10
10 10 6 0 10 -4 10 -10z m-210 -15 c0 -8 -9 -15 -20 -15 -20 0 -26 11 -13 23
12 13 33 7 33 -8z m-675 -44 c3 -16 13 -32 21 -35 19 -7 18 -26 -1 -26 -8 0
-15 7 -15 16 0 11 -6 15 -20 11 -11 -3 -18 -1 -15 3 3 5 1 11 -5 15 -7 4 -7
12 0 26 15 27 27 24 35 -10z m610 20 c3 -5 1 -12 -5 -16 -5 -3 -10 1 -10 9 0
18 6 21 15 7z m-172 -15 c9 -22 -18 -40 -33 -22 -6 9 -9 20 -5 26 9 15 32 12
38 -4z m131 -2 c22 -9 20 -24 -3 -24 -21 0 -34 13 -24 24 8 7 8 7 27 0z m-54
-53 c0 -20 -28 -33 -49 -21 -32 16 -25 30 14 30 19 0 35 -4 35 -9z m-300 -21
c0 -5 -4 -10 -10 -10 -5 0 -10 5 -10 10 0 6 5 10 10 10 6 0 10 -4 10 -10z m50
-26 c0 -17 -22 -14 -28 4 -2 7 3 12 12 12 9 0 16 -7 16 -16z m194 -5 c15 -18
16 -23 4 -36 -28 -27 -57 1 -42 41 8 21 16 20 38 -5z m136 6 c0 -8 -4 -15 -10
-15 -5 0 -10 7 -10 15 0 8 5 15 10 15 6 0 10 -7 10 -15z m-270 -25 c0 -5 -4
-10 -10 -10 -5 0 -10 5 -10 10 0 6 5 10 10 10 6 0 10 -4 10 -10z m228 -11 c9
-14 10 -25 4 -31 -11 -11 -25 7 -27 34 -2 24 7 23 23 -3z m-56 -31 c-9 -9 -12
-7 -12 12 0 19 3 21 12 12 9 -9 9 -15 0 -24z m-384 1 c-2 -6 -8 -10 -13 -10
-5 0 -11 4 -13 10 -2 6 4 11 13 11 9 0 15 -5 13 -11z m207 -19 c3 -5 1 -10 -4
-10 -6 0 -11 5 -11 10 0 6 2 10 4 10 3 0 8 -4 11 -10z m-157 -33 c3 -14 -1
-18 -20 -15 -12 2 -24 11 -26 21 -3 14 1 18 20 15 12 -2 24 -11 26 -21z m392
3 c0 -5 -4 -10 -10 -10 -5 0 -10 5 -10 10 0 6 5 10 10 10 6 0 10 -4 10 -10z
m-154 -119 c-10 -16 -46 -13 -46 3 0 16 30 27 44 15 4 -4 5 -12 2 -18z m5271
-1463 c-2 -18 -4 -4 -4 32 0 36 2 50 4 33 2 -18 2 -48 0 -65z m52 -262 c6 -27
10 -51 7 -53 -7 -8 -46 130 -45 161 1 28 2 27 14 -14 6 -25 17 -67 24 -94z
m86 -216 c7 -22 6 -23 -8 -12 -9 8 -21 38 -27 68 -6 29 -16 56 -21 60 -5 3 -6
10 -2 17 6 9 34 -55 58 -133z m-98 108 c-3 -8 -6 -5 -6 6 -1 11 2 17 5 13 3
-3 4 -12 1 -19z m723 -524 c15 -38 12 -42 -10 -14 -22 28 -25 40 -10 40 6 0
15 -12 20 -26z m-163 -56 c-2 -13 -4 -5 -4 17 -1 22 1 32 4 23 2 -10 2 -28 0
-40z"/>
<path d="M6910 7500 c-13 -8 -13 -10 2 -10 9 0 20 5 23 10 8 13 -5 13 -25 0z"/>
<path d="M6650 7456 c-79 -30 -126 -50 -145 -64 -18 -13 -17 -14 20 -8 22 3
67 17 100 31 33 13 68 25 78 25 16 0 17 2 3 15 -17 18 -12 17 -56 1z"/>
<path d="M5056 7423 c-6 -14 -5 -15 5 -6 7 7 10 15 7 18 -3 3 -9 -2 -12 -12z"/>
<path d="M4615 7395 c7 -33 12 -41 21 -33 3 4 -2 19 -11 35 l-16 28 6 -30z"/>
<path d="M6700 7220 c0 -5 4 -10 9 -10 6 0 13 5 16 10 3 6 -1 10 -9 10 -9 0
-16 -4 -16 -10z"/>
<path d="M6910 6946 c0 -13 75 -36 118 -36 60 0 43 17 -23 23 -27 2 -60 8 -72
12 -13 4 -23 5 -23 1z"/>
<path d="M7405 6860 c3 -5 11 -10 16 -10 6 0 7 5 4 10 -3 6 -11 10 -16 10 -6
0 -7 -4 -4 -10z"/>
<path d="M7460 6809 c0 -5 6 -9 14 -9 7 0 29 -3 47 -6 48 -10 32 3 -19 14 -24
6 -42 6 -42 1z"/>
<path d="M7613 6773 c9 -2 23 -2 30 0 6 3 -1 5 -18 5 -16 0 -22 -2 -12 -5z"/>
<path d="M4426 6702 c-3 -5 -3 -17 -1 -28 2 -10 4 -22 4 -26 1 -12 41 -10 41
1 0 6 -5 13 -11 17 -8 4 -8 9 0 17 6 6 11 15 11 19 0 10 -37 10 -44 0z"/>
<path d="M4386 6693 c-9 -9 -7 -33 3 -33 12 0 22 28 12 34 -5 3 -11 3 -15 -1z"/>
<path d="M4535 6690 c-4 -6 -3 -16 3 -22 13 -13 23 4 13 21 -7 10 -10 10 -16
1z"/>
<path d="M4638 6643 c7 -3 16 -2 19 1 4 3 -2 6 -13 5 -11 0 -14 -3 -6 -6z"/>
<path d="M4270 6588 c0 -9 5 -20 10 -23 13 -8 13 5 0 25 -8 13 -10 13 -10 -2z"/>
<path d="M4590 6580 c0 -5 5 -10 11 -10 5 0 7 5 4 10 -3 6 -8 10 -11 10 -2 0
-4 -4 -4 -10z"/>
<path d="M4285 6545 c-5 -2 -23 -6 -38 -9 -30 -7 -28 -26 4 -26 22 0 26 -25 5
-33 -7 -3 -19 0 -25 6 -17 17 -27 -2 -12 -24 10 -18 10 -24 -6 -41 -18 -20
-17 -20 4 -14 12 4 24 2 28 -4 3 -6 -3 -10 -14 -10 -12 0 -21 -5 -21 -11 0 -6
7 -9 15 -5 8 3 15 1 15 -3 0 -5 -7 -11 -15 -15 -18 -7 -20 -39 -2 -33 6 2 18
-3 24 -12 10 -13 14 -13 21 -3 5 7 16 10 27 6 13 -5 16 -3 13 7 -3 8 -15 14
-28 14 -27 0 -39 22 -16 31 19 7 22 34 4 34 -6 0 -4 6 6 13 15 11 16 17 7 35
-14 27 -14 32 2 32 9 0 14 13 15 35 1 19 0 35 -1 34 -1 0 -6 -2 -12 -4z"/>
<path d="M4188 6533 c7 -3 16 -2 19 1 4 3 -2 6 -13 5 -11 0 -14 -3 -6 -6z"/>
<path d="M4375 6510 c-3 -5 -1 -10 4 -10 6 0 11 5 11 10 0 6 -2 10 -4 10 -3 0
-8 -4 -11 -10z"/>
<path d="M7350 6465 c19 -14 39 -25 44 -25 6 0 -6 11 -26 25 -20 14 -40 25
-44 25 -5 0 7 -11 26 -25z"/>
<path d="M4400 6470 c0 -12 8 -12 35 0 18 8 17 9 -7 9 -16 1 -28 -3 -28 -9z"/>
<path d="M4311 6453 c-1 -12 4 -25 9 -28 12 -7 12 2 0 30 -8 19 -9 19 -9 -2z"/>
<path d="M4520 6450 c0 -5 5 -10 11 -10 5 0 7 5 4 10 -3 6 -8 10 -11 10 -2 0
-4 -4 -4 -10z"/>
<path d="M4390 6425 c0 -14 4 -25 10 -25 5 0 6 7 3 17 -5 12 -3 14 8 8 12 -8
12 -6 0 8 -18 23 -21 22 -21 -8z"/>
<path d="M4099 6403 c-9 -10 -24 -23 -35 -29 -18 -11 -18 -11 0 -29 18 -19 18
-19 12 2 -8 24 15 37 45 28 14 -5 17 -2 13 9 -4 11 -1 16 10 16 9 0 16 5 16
10 0 17 -44 11 -61 -7z"/>
<path d="M4805 6411 c-3 -5 -1 -12 5 -16 5 -3 10 1 10 9 0 18 -6 21 -15 7z"/>
<path d="M3741 6377 c-13 -21 -12 -21 5 -5 10 10 16 20 13 22 -3 3 -11 -5 -18
-17z"/>
<path d="M3966 6387 c3 -9 -3 -16 -17 -20 -19 -5 -20 -8 -9 -22 8 -9 22 -14
31 -12 10 3 20 0 22 -6 2 -6 6 -4 9 5 4 8 1 26 -5 38 -13 26 -40 41 -31 17z"/>
<path d="M4307 6385 c-8 -20 7 -27 39 -19 17 4 29 2 35 -7 4 -7 11 -10 16 -6
10 11 -17 27 -44 27 -13 0 -23 5 -23 10 0 15 -17 12 -23 -5z"/>
<path d="M3770 6374 c0 -8 5 -12 10 -9 6 3 10 10 10 16 0 5 -4 9 -10 9 -5 0
-10 -7 -10 -16z"/>
<path d="M4730 6333 c0 -5 5 -15 10 -23 8 -12 10 -11 10 8 0 12 -4 22 -10 22
-5 0 -10 -3 -10 -7z"/>
<path d="M3645 6320 c-3 -5 -4 -10 -1 -10 2 0 11 -2 19 -5 8 -4 14 0 14 10 0
17 -22 21 -32 5z"/>
<path d="M3787 6310 c18 -21 53 -27 53 -10 0 6 -7 10 -16 10 -8 0 -12 5 -9 10
4 6 -5 10 -19 10 -25 0 -25 -1 -9 -20z"/>
<path d="M4801 6304 c0 -11 3 -14 6 -6 3 7 2 16 -1 19 -3 4 -6 -2 -5 -13z"/>
<path d="M3990 6297 c0 -6 15 -26 34 -43 33 -31 34 -31 34 -7 0 14 -11 31 -28
43 -33 23 -40 25 -40 7z"/>
<path d="M3879 6278 c-6 -13 -24 -33 -40 -46 -32 -26 -37 -47 -14 -56 8 -3 13
-11 10 -18 -8 -21 12 -45 25 -32 8 8 8 21 -3 46 -12 28 -12 38 -2 52 9 11 15
13 20 6 10 -16 24 -2 18 19 -3 10 0 22 6 25 14 9 14 26 1 26 -5 0 -15 -10 -21
-22z"/>
<path d="M3920 6272 c0 -12 3 -12 18 -1 9 7 19 14 21 16 2 1 -6 1 -18 0 -11
-1 -21 -8 -21 -15z"/>
<path d="M4390 6270 c0 -5 7 -7 15 -4 8 4 15 8 15 10 0 2 -7 4 -15 4 -8 0 -15
-4 -15 -10z"/>
<path d="M3600 6257 c0 -4 9 -17 19 -28 18 -19 21 -20 43 -5 14 9 27 14 30 10
3 -3 9 -1 12 4 3 5 -1 15 -9 22 -12 10 -15 9 -15 -4 0 -10 -8 -16 -22 -16 -21
1 -21 2 -6 14 15 11 13 12 -17 12 -19 -1 -35 -5 -35 -9z"/>
<path d="M4250 6250 c0 -5 5 -10 10 -10 6 0 10 5 10 10 0 6 -4 10 -10 10 -5 0
-10 -4 -10 -10z"/>
<path d="M4410 6181 c0 -6 5 -13 10 -16 6 -3 10 1 10 9 0 9 -4 16 -10 16 -5 0
-10 -4 -10 -9z"/>
<path d="M4145 6170 c-3 -5 -1 -10 4 -10 6 0 11 5 11 10 0 6 -2 10 -4 10 -3 0
-8 -4 -11 -10z"/>
<path d="M3796 6151 c-4 -7 -5 -15 -2 -18 9 -9 19 4 14 18 -4 11 -6 11 -12 0z"/>
<path d="M3802 6098 c3 -7 15 -14 29 -16 23 -2 23 -2 5 13 -24 18 -39 20 -34
3z"/>
<path d="M3726 6067 c3 -10 9 -15 12 -12 3 3 0 11 -7 18 -10 9 -11 8 -5 -6z"/>
<path d="M2350 6016 c0 -9 5 -16 10 -16 6 0 10 4 10 9 0 6 -4 13 -10 16 -5 3
-10 -1 -10 -9z"/>
<path d="M2308 5945 c-10 -13 -18 -33 -18 -44 0 -24 25 -28 34 -6 3 8 0 15 -5
15 -7 0 -5 10 5 24 21 32 6 41 -16 11z"/>
<path d="M2345 5930 c-3 -5 1 -10 10 -10 9 0 13 5 10 10 -3 6 -8 10 -10 10 -2
0 -7 -4 -10 -10z"/>
<path d="M3751 5774 c0 -11 3 -14 6 -6 3 7 2 16 -1 19 -3 4 -6 -2 -5 -13z"/>
<path d="M3790 5740 c0 -5 5 -10 11 -10 5 0 7 5 4 10 -3 6 -8 10 -11 10 -2 0
-4 -4 -4 -10z"/>
<path d="M3700 5625 c0 -8 5 -15 10 -15 6 0 10 7 10 15 0 8 -4 15 -10 15 -5 0
-10 -7 -10 -15z"/>
<path d="M3717 5603 c-4 -3 -7 -13 -7 -21 0 -12 3 -12 15 -2 8 7 15 16 15 21
0 11 -14 12 -23 2z"/>
<path d="M3460 5570 c0 -5 5 -10 10 -10 6 0 10 5 10 10 0 6 -4 10 -10 10 -5 0
-10 -4 -10 -10z"/>
<path d="M7080 5550 c0 -6 8 -10 18 -10 9 0 24 -5 32 -11 11 -7 3 -9 -30 -4
l-45 5 41 -15 c37 -13 45 -13 70 0 l28 14 -25 9 c-43 16 -89 22 -89 12z"/>
<path d="M3498 5523 c-10 -2 -18 -11 -18 -19 0 -20 13 -17 28 6 7 11 11 19 10
19 -2 -1 -11 -3 -20 -6z"/>
<path d="M4597 5519 c7 -7 15 -10 18 -7 3 3 -2 9 -12 12 -14 6 -15 5 -6 -5z"/>
<path d="M2117 5493 c-12 -11 -8 -51 6 -56 9 -3 12 5 9 29 -4 36 -5 38 -15 27z"/>
<path d="M3650 5450 c-9 -6 -11 -10 -3 -10 7 0 10 -7 6 -17 -5 -15 -3 -14 10
2 26 32 19 46 -13 25z"/>
<path d="M2079 5362 c-9 -26 -20 -55 -24 -64 -4 -11 -3 -18 3 -18 6 0 16 17
22 38 7 20 19 45 27 54 14 16 11 38 -5 38 -4 0 -14 -22 -23 -48z"/>
<path d="M3241 5367 c-6 -14 -5 -23 2 -26 6 -2 13 1 15 8 7 21 19 11 18 -16
-1 -22 -6 -28 -23 -27 -13 0 -23 -3 -23 -8 0 -11 48 -10 55 2 3 6 17 10 30 10
12 0 26 7 29 16 9 24 8 27 -14 21 -12 -3 -25 2 -33 12 -21 30 -47 33 -56 8z"/>
<path d="M3565 5370 c-3 -5 1 -10 10 -10 9 0 13 5 10 10 -3 6 -8 10 -10 10 -2
0 -7 -4 -10 -10z"/>
<path d="M3409 5341 c-25 -28 -30 -39 -21 -45 12 -7 52 31 52 49 0 19 -11 18
-31 -4z"/>
<path d="M3730 5349 c0 -5 5 -7 10 -4 6 3 10 8 10 11 0 2 -4 4 -10 4 -5 0 -10
-5 -10 -11z"/>
<path d="M7060 5352 c0 -4 15 -16 33 -26 l32 -19 -24 26 c-24 27 -41 34 -41
19z"/>
<path d="M3560 5330 c0 -5 6 -13 14 -17 7 -4 16 -15 19 -23 4 -11 6 -9 6 6 1
20 -16 44 -31 44 -4 0 -8 -4 -8 -10z"/>
<path d="M3420 5284 c0 -8 5 -12 10 -9 6 4 8 11 5 16 -9 14 -15 11 -15 -7z"/>
<path d="M3115 5281 c3 -5 0 -11 -7 -13 -6 -2 -8 -9 -4 -16 8 -14 36 -4 36 13
0 7 -7 16 -16 19 -8 3 -13 2 -9 -3z"/>
<path d="M7245 5246 c27 -25 55 -46 62 -46 7 0 13 -4 13 -8 0 -13 76 -45 92
-39 8 3 2 10 -17 18 -16 8 -36 20 -44 27 -7 7 -34 24 -60 37 -25 14 -57 32
-71 41 -14 9 -3 -5 25 -30z"/>
<path d="M3667 5273 c-3 -5 -21 -8 -40 -7 -25 1 -34 -2 -31 -11 4 -9 15 -10
40 -5 38 9 51 17 42 26 -3 3 -8 2 -11 -3z"/>
<path d="M3250 5246 c0 -8 5 -18 10 -21 6 -3 10 1 10 9 0 8 -4 18 -10 21 -5 3
-10 -1 -10 -9z"/>
<path d="M3297 5243 c-4 -3 -7 -11 -7 -17 0 -6 5 -5 12 2 6 6 9 14 7 17 -3 3
-9 2 -12 -2z"/>
<path d="M3100 5221 c0 -5 10 -13 23 -17 12 -4 25 -11 29 -17 4 -7 12 -6 22 2
9 7 13 17 10 23 -3 5 -11 5 -19 -2 -9 -8 -15 -8 -20 0 -3 6 -11 8 -16 5 -5 -4
-9 -1 -9 4 0 6 -4 11 -10 11 -5 0 -10 -4 -10 -9z"/>
<path d="M3224 5200 c1 -28 20 -30 24 -2 2 14 -2 22 -11 22 -8 0 -14 -9 -13
-20z"/>
<path d="M3320 5210 c0 -5 5 -10 11 -10 5 0 7 5 4 10 -3 6 -8 10 -11 10 -2 0
-4 -4 -4 -10z"/>
<path d="M3117 5140 c-3 -11 -1 -20 4 -20 5 0 9 9 9 20 0 11 -2 20 -4 20 -2 0
-6 -9 -9 -20z"/>
<path d="M2025 5140 c-3 -5 -1 -10 4 -10 6 0 11 5 11 10 0 6 -2 10 -4 10 -3 0
-8 -4 -11 -10z"/>
<path d="M3080 5130 c0 -5 5 -10 11 -10 5 0 7 5 4 10 -3 6 -8 10 -11 10 -2 0
-4 -4 -4 -10z"/>
<path d="M2000 5015 c0 -9 6 -12 15 -9 8 4 12 10 9 15 -8 14 -24 10 -24 -6z"/>
<path d="M1990 4877 c0 -18 2 -19 10 -7 9 13 11 13 21 0 8 -13 10 -12 7 4 -4
28 -38 30 -38 3z"/>
<path d="M3150 4850 c0 -5 5 -10 10 -10 6 0 10 5 10 10 0 6 -4 10 -10 10 -5 0
-10 -4 -10 -10z"/>
<path d="M2921 4768 c-15 -46 -6 -71 20 -55 27 17 29 31 9 62 l-18 27 -11 -34z"/>
<path d="M2906 4681 c-4 -6 0 -18 9 -27 21 -22 26 -15 11 15 -9 15 -16 20 -20
12z"/>
<path d="M2972 4675 c-17 -19 -1 -19 24 0 14 11 15 14 4 14 -8 0 -21 -6 -28
-14z"/>
<path d="M3085 4680 c-3 -5 1 -10 10 -10 9 0 13 5 10 10 -3 6 -8 10 -10 10 -2
0 -7 -4 -10 -10z"/>
<path d="M2106 4655 c-3 -9 0 -15 9 -15 8 0 15 7 15 15 0 8 -4 15 -9 15 -5 0
-11 -7 -15 -15z"/>
<path d="M2195 4630 c3 -5 8 -10 11 -10 2 0 4 5 4 10 0 6 -5 10 -11 10 -5 0
-7 -4 -4 -10z"/>
<path d="M2848 4573 c6 -2 18 -2 25 0 6 3 1 5 -13 5 -14 0 -19 -2 -12 -5z"/>
<path d="M2241 4554 c0 -11 3 -14 6 -6 3 7 2 16 -1 19 -3 4 -6 -2 -5 -13z"/>
<path d="M2907 4549 c-3 -12 -10 -18 -16 -14 -6 3 -11 1 -11 -5 0 -8 -7 -9
-17 -5 -10 3 -22 7 -27 8 -14 3 -24 -46 -13 -61 8 -10 15 -8 32 8 15 14 25 18
30 11 3 -6 -1 -11 -11 -11 -14 0 -15 -3 -6 -12 8 -8 8 -15 1 -24 -15 -18 4
-49 30 -51 17 -1 19 2 12 16 -14 26 -11 99 4 105 8 3 11 13 8 27 -5 19 -3 21
15 17 12 -4 25 -2 28 3 3 5 -8 9 -24 9 -22 0 -31 -6 -35 -21z"/>
<path d="M2340 4481 c0 -10 3 -33 6 -50 5 -24 12 -31 30 -31 29 0 30 4 4 30
-11 11 -20 31 -20 45 0 14 -4 25 -10 25 -5 0 -10 -8 -10 -19z"/>
<path d="M2830 4420 c0 -11 4 -20 9 -20 5 0 7 9 4 20 -3 11 -7 20 -9 20 -2 0
-4 -9 -4 -20z"/>
<path d="M2584 4418 c-5 -8 -16 -18 -24 -21 -8 -3 0 -6 18 -6 33 -1 38 4 23
28 -7 11 -10 11 -17 -1z"/>
<path d="M4692 3690 c-18 -4 -42 -16 -53 -26 -44 -40 -49 -65 -49 -241 0 -206
18 -292 83 -398 101 -165 117 -235 117 -517 0 -156 -3 -189 -16 -202 -18 -18
-32 -20 -54 -6 -13 8 -16 54 -20 282 l-5 273 -50 -3 c-27 -2 -51 -5 -52 -6 -8
-7 -2 -536 5 -557 24 -61 72 -89 150 -89 61 1 111 26 136 70 18 32 20 53 20
285 1 278 -3 306 -69 420 -68 119 -114 221 -124 279 -14 76 -14 311 -1 337 13
23 53 25 70 4 10 -12 13 -70 14 -218 l1 -202 45 -6 c76 -10 73 -21 67 216 -5
240 -11 261 -77 295 -40 21 -81 24 -138 10z"/>
<path d="M1340 3009 c0 -489 3 -682 12 -711 17 -58 66 -88 141 -88 75 0 110
19 136 73 21 43 21 53 21 720 l0 677 -49 0 -50 0 -3 -678 c-3 -736 -1 -712
-58 -712 -19 0 -30 7 -38 25 -9 19 -12 209 -12 695 l0 670 -50 0 -50 0 0 -671z"/>
<path d="M2485 3526 c-16 -7 -41 -26 -55 -41 l-25 -27 0 -578 0 -578 25 -27
c14 -15 38 -34 54 -42 39 -21 133 -14 169 12 53 39 56 60 57 331 l1 249 -48 0
-48 0 -3 -251 -2 -251 -25 -13 c-21 -11 -29 -11 -50 0 l-25 13 0 548 0 549 25
16 c14 9 32 13 45 9 21 -7 22 -21 25 -395 l1 -65 54 0 55 0 0 232 c0 218 -1
233 -21 260 -42 57 -139 80 -209 49z"/>
<path d="M2934 3531 c-51 -13 -101 -49 -114 -82 -10 -24 -12 -148 -7 -581 5
-521 6 -552 24 -576 34 -46 70 -65 128 -70 77 -6 132 24 156 86 5 13 9 271 9
573 0 444 -3 556 -14 583 -22 52 -111 85 -182 67z m70 -97 c14 -14 16 -76 14
-566 -3 -513 -4 -552 -21 -562 -13 -8 -24 -7 -45 4 l-27 16 2 319 c1 176 2
422 3 547 0 192 2 229 16 242 20 20 38 20 58 0z"/>
<path d="M4127 3528 c-23 -6 -47 -23 -63 -44 -25 -32 -26 -39 -25 -159 2 -196
23 -312 87 -478 57 -149 76 -245 78 -397 1 -133 1 -135 -22 -138 -12 -2 -24 3
-27 10 -2 7 -6 92 -8 188 l-3 175 -55 0 -54 0 -3 -180 c-2 -155 0 -185 15
-215 25 -48 72 -73 135 -71 63 1 108 26 131 73 16 33 17 49 7 181 -12 176 -25
240 -88 427 -68 201 -108 456 -83 523 11 29 44 37 58 15 4 -7 8 -94 8 -193 l0
-180 53 -3 c51 -3 52 -2 53 25 0 15 0 104 0 198 -1 149 -3 173 -19 195 -36 48
-106 67 -175 48z"/>
<path d="M5405 3521 c-22 -10 -51 -31 -65 -45 l-25 -28 0 -566 0 -567 23 -33
c29 -40 79 -62 144 -62 56 0 97 18 127 56 21 26 21 34 21 596 0 644 3 614 -76
649 -57 24 -97 24 -149 0z m103 -83 c9 -9 12 -148 12 -565 l0 -553 -27 -6
c-60 -16 -58 -39 -61 559 -2 486 0 547 14 561 18 19 45 21 62 4z"/>
<path d="M3267 3522 l-37 -3 2 -642 3 -642 53 -3 52 -3 0 305 0 306 29 0 c17
0 31 -6 35 -16 3 -9 6 -146 6 -305 l0 -289 55 0 55 0 0 303 c0 258 -2 306 -16
325 -8 12 -22 22 -30 22 -21 0 -17 18 7 25 11 4 24 18 30 32 13 34 12 509 -1
534 -6 10 -23 25 -38 33 -28 14 -138 24 -205 18z m125 -99 c16 -15 18 -36 18
-234 0 -119 -3 -224 -6 -233 -4 -10 -18 -16 -35 -16 l-29 0 0 250 c0 227 2
250 17 250 9 0 25 -7 35 -17z"/>
<path d="M4953 3524 c-7 -3 -13 -23 -13 -45 l0 -39 50 0 50 0 0 -605 0 -605
55 0 55 0 1 133 c1 72 2 344 3 602 l1 470 53 3 53 3 -3 42 -3 42 -145 2 c-80
1 -151 -1 -157 -3z"/>
<path d="M5748 3523 c-17 -4 -18 -44 -18 -649 l0 -644 55 0 55 0 0 310 c0 289
1 310 18 310 47 -1 47 -2 52 -317 l5 -298 53 -3 52 -3 0 303 c0 259 -2 307
-16 326 -8 12 -23 22 -32 22 -12 0 -7 8 16 29 l32 30 2 153 c4 272 1 367 -13
384 -26 32 -73 46 -158 49 -47 1 -94 1 -103 -2z m154 -106 c9 -14 11 -438 2
-461 -4 -10 -18 -16 -35 -16 l-29 0 0 251 0 251 27 -7 c15 -3 31 -12 35 -18z"/>
<path d="M6133 3523 c-10 -4 -13 -143 -13 -649 l0 -645 103 3 102 3 3 43 3 42
-50 0 -51 0 0 275 0 275 43 0 c57 0 69 10 65 51 -3 33 -4 34 -55 37 l-53 3 0
241 0 240 35 -6 c58 -11 75 -1 75 44 0 28 -5 40 -17 44 -22 6 -173 5 -190 -1z"/>
<path d="M1752 2878 l3 -643 43 -3 42 -3 0 356 c0 332 7 418 25 298 3 -27 19
-113 34 -193 16 -80 41 -214 57 -298 26 -139 30 -153 51 -158 56 -14 53 -49
53 646 l0 640 -45 0 -45 0 0 -356 c1 -196 -1 -358 -4 -361 -2 -2 -7 15 -11 39
-7 48 -113 620 -120 656 -5 18 -12 22 -45 22 l-40 0 2 -642z"/>
<path d="M2180 2881 c0 -573 2 -639 16 -645 27 -10 74 -7 79 7 2 6 6 297 8
645 l5 632 -54 0 -54 0 0 -639z"/>
<path d="M3618 3008 c-2 -282 -2 -573 0 -645 l3 -133 50 0 49 0 1 338 c1 305
3 330 14 267 7 -38 20 -108 29 -155 32 -165 57 -306 69 -377 l11 -71 44 -4
c24 -2 46 0 48 4 2 4 2 184 0 400 -3 216 -5 504 -6 641 l0 247 -45 0 -45 0 -2
-352 -3 -353 -18 95 c-10 52 -25 127 -32 165 -26 132 -74 390 -77 415 -3 22
-9 25 -45 28 l-42 3 -3 -513z"/>
<path d="M8450 3035 c0 -17 4 -35 9 -40 15 -16 41 -115 30 -115 -5 0 -9 5 -9
12 0 6 -2 9 -5 6 -10 -9 7 -38 21 -38 15 0 38 -46 29 -59 -2 -5 2 -17 10 -27
13 -17 14 -15 15 26 0 41 1 43 14 24 8 -11 16 -35 18 -54 2 -18 8 -35 15 -37
9 -3 10 4 2 29 -12 42 -12 41 6 34 23 -9 18 1 -25 48 -22 24 -55 76 -74 117
-47 101 -56 112 -56 74z"/>
<path d="M7806 2885 c8 -86 36 -240 45 -250 10 -10 7 16 -16 130 -8 39 -19 93
-24 120 l-10 50 5 -50z"/>
<path d="M8660 2752 c0 -10 33 -42 43 -42 3 0 4 6 1 13 -6 15 -44 40 -44 29z"/>
<path d="M8609 2513 c20 -34 41 -56 47 -50 8 7 -34 67 -47 67 -6 0 -6 -7 0
-17z"/>
<path d="M8685 2410 c10 -11 20 -20 22 -20 2 0 -2 9 -9 20 -7 11 -17 20 -22
20 -5 0 -1 -9 9 -20z"/>
<path d="M8647 2404 c6 -3 24 -31 39 -62 27 -55 62 -112 76 -122 4 -3 14 -21
22 -40 8 -19 15 -29 16 -21 0 18 -84 174 -118 219 -13 17 -29 32 -36 31 -8 0
-8 -2 1 -5z"/>
<path d="M7971 2320 c0 -8 7 -31 15 -50 l14 -35 -5 39 c-4 38 -26 78 -24 46z"/>
<path d="M8810 2240 c13 -23 20 -26 20 -6 0 8 -7 16 -15 20 -13 4 -14 2 -5
-14z"/>
<path d="M8144 2182 c20 -39 40 -73 45 -76 5 -3 -6 25 -25 64 -19 38 -39 72
-45 75 -6 4 6 -25 25 -63z"/>
<path d="M8706 2237 c3 -10 9 -15 12 -12 3 3 0 11 -7 18 -10 9 -11 8 -5 -6z"/>
<path d="M8180 2231 c0 -6 4 -13 10 -16 6 -3 7 1 4 9 -7 18 -14 21 -14 7z"/>
<path d="M8140 2120 c13 -23 20 -26 20 -6 0 8 -7 16 -15 20 -13 4 -14 2 -5
-14z"/>
<path d="M8200 2086 c0 -2 7 -9 15 -16 9 -7 15 -8 15 -2 0 5 -7 12 -15 16 -8
3 -15 4 -15 2z"/>
<path d="M8637 2013 c-3 -5 9 -25 28 -43 42 -41 46 -28 7 20 -16 19 -31 29
-35 23z"/>
<path d="M8426 1997 c3 -10 9 -15 12 -12 3 3 0 11 -7 18 -10 9 -11 8 -5 -6z"/>
<path d="M8462 1928 c2 -6 10 -14 16 -16 7 -2 10 2 6 12 -7 18 -28 22 -22 4z"/>
</g>
</svg>
